<?xml version="1.0" encoding="UTF-8" standalone="no"?>
<!DOCTYPE svg PUBLIC "-//W3C//DTD SVG 1.1//EN" "http://www.w3.org/Graphics/SVG/1.1/DTD/svg11.dtd">
<svg width="100%" height="100%" viewBox="0 0 1280 620" version="1.1" xmlns="http://www.w3.org/2000/svg" xmlns:xlink="http://www.w3.org/1999/xlink" xml:space="preserve" xmlns:serif="http://www.serif.com/" style="fill-rule:evenodd;clip-rule:evenodd;stroke-linejoin:round;stroke-miterlimit:2;">
    <g transform="matrix(1,0,0,1,0,-109.168)">
        <g transform="matrix(1.02018,0,0,1.16373,-340.779,-66.9151)">
            <rect x="443.176" y="151.309" width="49.011" height="98.82" style="fill:rgb(247,247,247);"/>
        </g>
        <g transform="matrix(1.02018,0,0,1.16373,-287.509,-66.9151)">
            <rect x="443.176" y="151.309" width="49.011" height="98.82" style="fill:rgb(247,247,247);"/>
        </g>
        <g transform="matrix(1.02018,0,0,1.16373,-234.24,-66.9151)">
            <rect x="443.176" y="151.309" width="49.011" height="98.82" style="fill:rgb(247,247,247);"/>
        </g>
        <g transform="matrix(1.02018,0,0,1.16373,-180.97,-66.9151)">
            <rect x="443.176" y="151.309" width="49.011" height="98.82" style="fill:rgb(247,247,247);"/>
        </g>
        <g transform="matrix(1.02018,0,0,1.16373,-127.701,-66.9151)">
            <rect x="443.176" y="151.309" width="49.011" height="98.82" style="fill:rgb(247,247,247);"/>
        </g>
        <g transform="matrix(1.02018,0,0,1.16373,-74.4314,-66.9151)">
            <rect x="443.176" y="151.309" width="49.011" height="98.82" style="fill:rgb(247,247,247);"/>
        </g>
        <g transform="matrix(1.02018,0,0,1.16373,-21.162,-66.9151)">
            <rect x="443.176" y="151.309" width="49.011" height="98.82" style="fill:rgb(247,247,247);"/>
        </g>
        <g transform="matrix(1.02018,0,0,1.16373,32.1075,-66.9151)">
            <rect x="443.176" y="151.309" width="49.011" height="98.82" style="fill:rgb(247,247,247);"/>
        </g>
        <g transform="matrix(1.02018,0,0,1.16373,85.3769,-66.9151)">
            <rect x="443.176" y="151.309" width="49.011" height="98.82" style="fill:rgb(247,247,247);"/>
        </g>
        <g transform="matrix(1.02018,0,0,1.16373,138.646,-66.9151)">
            <rect x="443.176" y="151.309" width="49.011" height="98.82" style="fill:rgb(247,247,247);"/>
        </g>
        <g transform="matrix(1.02018,0,0,1.16373,191.916,-66.9151)">
            <rect x="443.176" y="151.309" width="49.011" height="98.82" style="fill:rgb(247,247,247);"/>
        </g>
        <g transform="matrix(1.02018,0,0,1.16373,245.185,-66.9151)">
            <rect x="443.176" y="151.309" width="49.011" height="98.82" style="fill:rgb(247,247,247);"/>
        </g>
        <g transform="matrix(1.02018,0,0,1.16373,298.455,-66.9151)">
            <rect x="443.176" y="151.309" width="49.011" height="98.82" style="fill:rgb(247,247,247);"/>
        </g>
        <g transform="matrix(1.02018,0,0,1.16373,351.724,-66.9151)">
            <rect x="443.176" y="151.309" width="49.011" height="98.82" style="fill:rgb(247,247,247);"/>
        </g>
        <g transform="matrix(1.02018,0,0,1.16373,404.994,-66.9151)">
            <rect x="443.176" y="151.309" width="49.011" height="98.82" style="fill:rgb(247,247,247);"/>
        </g>
        <g transform="matrix(1.02018,0,0,1.16373,458.263,-66.9151)">
            <rect x="443.176" y="151.309" width="49.011" height="98.82" style="fill:rgb(247,247,247);"/>
        </g>
        <g transform="matrix(1.02018,0,0,1.16373,511.532,-66.9151)">
            <rect x="443.176" y="151.309" width="49.011" height="98.82" style="fill:rgb(247,247,247);"/>
        </g>
        <g transform="matrix(1.02018,0,0,1.16373,564.802,-66.9151)">
            <rect x="443.176" y="151.309" width="49.011" height="98.82" style="fill:rgb(247,247,247);"/>
        </g>
        <g transform="matrix(1.02018,0,0,1.16373,618.071,-66.9151)">
            <rect x="443.176" y="151.309" width="49.011" height="98.82" style="fill:rgb(247,247,247);"/>
        </g>
        <g transform="matrix(1.02018,0,0,1.16373,671.341,-66.9151)">
            <rect x="443.176" y="151.309" width="49.011" height="98.82" style="fill:rgb(247,247,247);"/>
        </g>
        <g transform="matrix(1.02018,0,0,1.16373,724.61,-66.9151)">
            <rect x="443.176" y="151.309" width="49.011" height="98.82" style="fill:rgb(247,247,247);"/>
        </g>
        <g transform="matrix(1.02018,0,0,1.16373,777.88,-66.9151)">
            <rect x="443.176" y="151.309" width="49.011" height="98.82" style="fill:rgb(247,247,247);"/>
        </g>
    </g>
    <g transform="matrix(1,0,0,1,0,17.0804)">
        <g transform="matrix(1.02018,0,0,1.16373,-340.779,-66.9151)">
            <rect x="443.176" y="151.309" width="49.011" height="98.82" style="fill:rgb(247,247,247);"/>
        </g>
        <g transform="matrix(1.02018,0,0,1.16373,-287.509,-66.9151)">
            <rect x="443.176" y="151.309" width="49.011" height="98.82" style="fill:rgb(247,247,247);"/>
        </g>
        <g transform="matrix(1.02018,0,0,1.16373,-234.24,-66.9151)">
            <rect x="443.176" y="151.309" width="49.011" height="98.82" style="fill:rgb(247,247,247);"/>
        </g>
        <g transform="matrix(1.02018,0,0,1.16373,-180.97,-66.9151)">
            <rect x="443.176" y="151.309" width="49.011" height="98.82" style="fill:rgb(247,247,247);"/>
        </g>
        <g transform="matrix(1.02018,0,0,1.16373,-127.701,-66.9151)">
            <rect x="443.176" y="151.309" width="49.011" height="98.82" style="fill:rgb(247,247,247);"/>
        </g>
        <g transform="matrix(1.02018,0,0,1.16373,-74.4314,-66.9151)">
            <rect x="443.176" y="151.309" width="49.011" height="98.82" style="fill:rgb(247,247,247);"/>
        </g>
        <g transform="matrix(1.02018,0,0,1.16373,-21.162,-66.9151)">
            <rect x="443.176" y="151.309" width="49.011" height="98.82" style="fill:rgb(247,247,247);"/>
        </g>
        <g transform="matrix(1.02018,0,0,1.16373,32.1075,-66.9151)">
            <rect x="443.176" y="151.309" width="49.011" height="98.82" style="fill:rgb(247,247,247);"/>
        </g>
        <g transform="matrix(1.02018,0,0,1.16373,85.3769,-66.9151)">
            <rect x="443.176" y="151.309" width="49.011" height="98.82" style="fill:rgb(247,247,247);"/>
        </g>
        <g transform="matrix(1.02018,0,0,1.16373,138.646,-66.9151)">
            <rect x="443.176" y="151.309" width="49.011" height="98.82" style="fill:rgb(247,247,247);"/>
        </g>
        <g transform="matrix(1.02018,0,0,1.16373,191.916,-66.9151)">
            <rect x="443.176" y="151.309" width="49.011" height="98.82" style="fill:rgb(247,247,247);"/>
        </g>
        <g transform="matrix(1.02018,0,0,1.16373,245.185,-66.9151)">
            <rect x="443.176" y="151.309" width="49.011" height="98.82" style="fill:rgb(247,247,247);"/>
        </g>
        <g transform="matrix(1.02018,0,0,1.16373,298.455,-66.9151)">
            <rect x="443.176" y="151.309" width="49.011" height="98.82" style="fill:rgb(247,247,247);"/>
        </g>
        <g transform="matrix(1.02018,0,0,1.16373,351.724,-66.9151)">
            <rect x="443.176" y="151.309" width="49.011" height="98.82" style="fill:rgb(247,247,247);"/>
        </g>
        <g transform="matrix(1.02018,0,0,1.16373,404.994,-66.9151)">
            <rect x="443.176" y="151.309" width="49.011" height="98.82" style="fill:rgb(247,247,247);"/>
        </g>
        <g transform="matrix(1.02018,0,0,1.16373,458.263,-66.9151)">
            <rect x="443.176" y="151.309" width="49.011" height="98.82" style="fill:rgb(247,247,247);"/>
        </g>
        <g transform="matrix(1.02018,0,0,1.16373,511.532,-66.9151)">
            <rect x="443.176" y="151.309" width="49.011" height="98.82" style="fill:rgb(247,247,247);"/>
        </g>
        <g transform="matrix(1.02018,0,0,1.16373,564.802,-66.9151)">
            <rect x="443.176" y="151.309" width="49.011" height="98.82" style="fill:rgb(247,247,247);"/>
        </g>
        <g transform="matrix(1.02018,0,0,1.16373,618.071,-66.9151)">
            <rect x="443.176" y="151.309" width="49.011" height="98.82" style="fill:rgb(247,247,247);"/>
        </g>
        <g transform="matrix(1.02018,0,0,1.16373,671.341,-66.9151)">
            <rect x="443.176" y="151.309" width="49.011" height="98.82" style="fill:rgb(247,247,247);"/>
        </g>
        <g transform="matrix(1.02018,0,0,1.16373,724.61,-66.9151)">
            <rect x="443.176" y="151.309" width="49.011" height="98.82" style="fill:rgb(247,247,247);"/>
        </g>
        <g transform="matrix(1.02018,0,0,1.16373,777.88,-66.9151)">
            <rect x="443.176" y="151.309" width="49.011" height="98.82" style="fill:rgb(247,247,247);"/>
        </g>
    </g>
    <g transform="matrix(1,0,0,1,0,143.329)">
        <g transform="matrix(1.02018,0,0,1.16373,-340.779,-66.9151)">
            <rect x="443.176" y="151.309" width="49.011" height="98.82" style="fill:rgb(247,247,247);"/>
        </g>
        <g transform="matrix(1.02018,0,0,1.16373,-287.509,-66.9151)">
            <rect x="443.176" y="151.309" width="49.011" height="98.82" style="fill:rgb(247,247,247);"/>
        </g>
        <g transform="matrix(1.02018,0,0,1.16373,-234.24,-66.9151)">
            <rect x="443.176" y="151.309" width="49.011" height="98.82" style="fill:rgb(247,247,247);"/>
        </g>
        <g transform="matrix(1.02018,0,0,1.16373,-180.97,-66.9151)">
            <rect x="443.176" y="151.309" width="49.011" height="98.82" style="fill:rgb(247,247,247);"/>
        </g>
        <g transform="matrix(1.02018,0,0,1.16373,-127.701,-66.9151)">
            <rect x="443.176" y="151.309" width="49.011" height="98.82" style="fill:rgb(247,247,247);"/>
        </g>
        <g transform="matrix(1.02018,0,0,1.16373,-74.4314,-66.9151)">
            <rect x="443.176" y="151.309" width="49.011" height="98.82" style="fill:rgb(247,247,247);"/>
        </g>
        <g transform="matrix(1.02018,0,0,1.16373,-21.162,-66.9151)">
            <rect x="443.176" y="151.309" width="49.011" height="98.82" style="fill:rgb(247,247,247);"/>
        </g>
        <g transform="matrix(1.02018,0,0,1.16373,32.1075,-66.9151)">
            <rect x="443.176" y="151.309" width="49.011" height="98.82" style="fill:rgb(247,247,247);"/>
        </g>
        <g transform="matrix(1.02018,0,0,1.16373,85.3769,-66.9151)">
            <rect x="443.176" y="151.309" width="49.011" height="98.82" style="fill:rgb(247,247,247);"/>
        </g>
        <g transform="matrix(1.02018,0,0,1.16373,138.646,-66.9151)">
            <rect x="443.176" y="151.309" width="49.011" height="98.82" style="fill:rgb(247,247,247);"/>
        </g>
        <g transform="matrix(1.02018,0,0,1.16373,191.916,-66.9151)">
            <rect x="443.176" y="151.309" width="49.011" height="98.82" style="fill:rgb(247,247,247);"/>
        </g>
        <g transform="matrix(1.02018,0,0,1.16373,245.185,-66.9151)">
            <rect x="443.176" y="151.309" width="49.011" height="98.82" style="fill:rgb(247,247,247);"/>
        </g>
        <g transform="matrix(1.02018,0,0,1.16373,298.455,-66.9151)">
            <rect x="443.176" y="151.309" width="49.011" height="98.82" style="fill:rgb(247,247,247);"/>
        </g>
        <g transform="matrix(1.02018,0,0,1.16373,351.724,-66.9151)">
            <rect x="443.176" y="151.309" width="49.011" height="98.82" style="fill:rgb(247,247,247);"/>
        </g>
        <g transform="matrix(1.02018,0,0,1.16373,404.994,-66.9151)">
            <rect x="443.176" y="151.309" width="49.011" height="98.82" style="fill:rgb(247,247,247);"/>
        </g>
        <g transform="matrix(1.02018,0,0,1.16373,458.263,-66.9151)">
            <rect x="443.176" y="151.309" width="49.011" height="98.82" style="fill:rgb(247,247,247);"/>
        </g>
        <g transform="matrix(1.02018,0,0,1.16373,511.532,-66.9151)">
            <rect x="443.176" y="151.309" width="49.011" height="98.82" style="fill:rgb(247,247,247);"/>
        </g>
        <g transform="matrix(1.02018,0,0,1.16373,564.802,-66.9151)">
            <rect x="443.176" y="151.309" width="49.011" height="98.82" style="fill:rgb(247,247,247);"/>
        </g>
        <g transform="matrix(1.02018,0,0,1.16373,618.071,-66.9151)">
            <rect x="443.176" y="151.309" width="49.011" height="98.82" style="fill:rgb(247,247,247);"/>
        </g>
        <g transform="matrix(1.02018,0,0,1.16373,671.341,-66.9151)">
            <rect x="443.176" y="151.309" width="49.011" height="98.82" style="fill:rgb(247,247,247);"/>
        </g>
        <g transform="matrix(1.02018,0,0,1.16373,724.61,-66.9151)">
            <rect x="443.176" y="151.309" width="49.011" height="98.82" style="fill:rgb(247,247,247);"/>
        </g>
        <g transform="matrix(1.02018,0,0,1.16373,777.88,-66.9151)">
            <rect x="443.176" y="151.309" width="49.011" height="98.82" style="fill:rgb(247,247,247);"/>
        </g>
    </g>
    <g transform="matrix(1,0,0,1,0,269.577)">
        <g transform="matrix(1.02018,0,0,1.16373,-340.779,-66.9151)">
            <rect x="443.176" y="151.309" width="49.011" height="98.82" style="fill:rgb(247,247,247);"/>
        </g>
        <g transform="matrix(1.02018,0,0,1.16373,-287.509,-66.9151)">
            <rect x="443.176" y="151.309" width="49.011" height="98.82" style="fill:rgb(247,247,247);"/>
        </g>
        <g transform="matrix(1.02018,0,0,1.16373,-234.24,-66.9151)">
            <rect x="443.176" y="151.309" width="49.011" height="98.82" style="fill:rgb(247,247,247);"/>
        </g>
        <g transform="matrix(1.02018,0,0,1.16373,-180.97,-66.9151)">
            <rect x="443.176" y="151.309" width="49.011" height="98.82" style="fill:rgb(247,247,247);"/>
        </g>
        <g transform="matrix(1.02018,0,0,1.16373,-127.701,-66.9151)">
            <rect x="443.176" y="151.309" width="49.011" height="98.82" style="fill:rgb(247,247,247);"/>
        </g>
        <g transform="matrix(1.02018,0,0,1.16373,-74.4314,-66.9151)">
            <rect x="443.176" y="151.309" width="49.011" height="98.82" style="fill:rgb(247,247,247);"/>
        </g>
        <g transform="matrix(1.02018,0,0,1.16373,-21.162,-66.9151)">
            <rect x="443.176" y="151.309" width="49.011" height="98.82" style="fill:rgb(247,247,247);"/>
        </g>
        <g transform="matrix(1.02018,0,0,1.16373,32.1075,-66.9151)">
            <rect x="443.176" y="151.309" width="49.011" height="98.82" style="fill:rgb(247,247,247);"/>
        </g>
        <g transform="matrix(1.02018,0,0,1.16373,85.3769,-66.9151)">
            <rect x="443.176" y="151.309" width="49.011" height="98.82" style="fill:rgb(247,247,247);"/>
        </g>
        <g transform="matrix(1.02018,0,0,1.16373,138.646,-66.9151)">
            <rect x="443.176" y="151.309" width="49.011" height="98.82" style="fill:rgb(247,247,247);"/>
        </g>
        <g transform="matrix(1.02018,0,0,1.16373,191.916,-66.9151)">
            <rect x="443.176" y="151.309" width="49.011" height="98.82" style="fill:rgb(247,247,247);"/>
        </g>
        <g transform="matrix(1.02018,0,0,1.16373,245.185,-66.9151)">
            <rect x="443.176" y="151.309" width="49.011" height="98.82" style="fill:rgb(247,247,247);"/>
        </g>
        <g transform="matrix(1.02018,0,0,1.16373,298.455,-66.9151)">
            <rect x="443.176" y="151.309" width="49.011" height="98.82" style="fill:rgb(247,247,247);"/>
        </g>
        <g transform="matrix(1.02018,0,0,1.16373,351.724,-66.9151)">
            <rect x="443.176" y="151.309" width="49.011" height="98.82" style="fill:rgb(247,247,247);"/>
        </g>
        <g transform="matrix(1.02018,0,0,1.16373,404.994,-66.9151)">
            <rect x="443.176" y="151.309" width="49.011" height="98.82" style="fill:rgb(247,247,247);"/>
        </g>
        <g transform="matrix(1.02018,0,0,1.16373,458.263,-66.9151)">
            <rect x="443.176" y="151.309" width="49.011" height="98.82" style="fill:rgb(247,247,247);"/>
        </g>
        <g transform="matrix(1.02018,0,0,1.16373,511.532,-66.9151)">
            <rect x="443.176" y="151.309" width="49.011" height="98.82" style="fill:rgb(247,247,247);"/>
        </g>
        <g transform="matrix(1.02018,0,0,1.16373,564.802,-66.9151)">
            <rect x="443.176" y="151.309" width="49.011" height="98.82" style="fill:rgb(247,247,247);"/>
        </g>
        <g transform="matrix(1.02018,0,0,1.16373,618.071,-66.9151)">
            <rect x="443.176" y="151.309" width="49.011" height="98.82" style="fill:rgb(247,247,247);"/>
        </g>
        <g transform="matrix(1.02018,0,0,1.16373,671.341,-66.9151)">
            <rect x="443.176" y="151.309" width="49.011" height="98.82" style="fill:rgb(247,247,247);"/>
        </g>
        <g transform="matrix(1.02018,0,0,1.16373,724.61,-66.9151)">
            <rect x="443.176" y="151.309" width="49.011" height="98.82" style="fill:rgb(247,247,247);"/>
        </g>
        <g transform="matrix(1.02018,0,0,1.16373,777.88,-66.9151)">
            <rect x="443.176" y="151.309" width="49.011" height="98.82" style="fill:rgb(247,247,247);"/>
        </g>
    </g>
    <g transform="matrix(1,0,0,1,0,395.825)">
        <g transform="matrix(1.02018,0,0,1.16373,-340.779,-66.9151)">
            <rect x="443.176" y="151.309" width="49.011" height="98.82" style="fill:rgb(247,247,247);"/>
        </g>
        <g transform="matrix(1.02018,0,0,1.16373,-287.509,-66.9151)">
            <rect x="443.176" y="151.309" width="49.011" height="98.82" style="fill:rgb(247,247,247);"/>
        </g>
        <g transform="matrix(1.02018,0,0,1.16373,-234.24,-66.9151)">
            <rect x="443.176" y="151.309" width="49.011" height="98.82" style="fill:rgb(247,247,247);"/>
        </g>
        <g transform="matrix(1.02018,0,0,1.16373,-180.97,-66.9151)">
            <rect x="443.176" y="151.309" width="49.011" height="98.82" style="fill:rgb(247,247,247);"/>
        </g>
        <g transform="matrix(1.02018,0,0,1.16373,-127.701,-66.9151)">
            <rect x="443.176" y="151.309" width="49.011" height="98.82" style="fill:rgb(247,247,247);"/>
        </g>
        <g transform="matrix(1.02018,0,0,1.16373,-74.4314,-66.9151)">
            <rect x="443.176" y="151.309" width="49.011" height="98.82" style="fill:rgb(247,247,247);"/>
        </g>
        <g transform="matrix(1.02018,0,0,1.16373,-21.162,-66.9151)">
            <rect x="443.176" y="151.309" width="49.011" height="98.82" style="fill:rgb(247,247,247);"/>
        </g>
        <g transform="matrix(1.02018,0,0,1.16373,32.1075,-66.9151)">
            <rect x="443.176" y="151.309" width="49.011" height="98.82" style="fill:rgb(247,247,247);"/>
        </g>
        <g transform="matrix(1.02018,0,0,1.16373,85.3769,-66.9151)">
            <rect x="443.176" y="151.309" width="49.011" height="98.82" style="fill:rgb(247,247,247);"/>
        </g>
        <g transform="matrix(1.02018,0,0,1.16373,138.646,-66.9151)">
            <rect x="443.176" y="151.309" width="49.011" height="98.82" style="fill:rgb(247,247,247);"/>
        </g>
        <g transform="matrix(1.02018,0,0,1.16373,191.916,-66.9151)">
            <rect x="443.176" y="151.309" width="49.011" height="98.82" style="fill:rgb(247,247,247);"/>
        </g>
        <g transform="matrix(1.02018,0,0,1.16373,245.185,-66.9151)">
            <rect x="443.176" y="151.309" width="49.011" height="98.82" style="fill:rgb(247,247,247);"/>
        </g>
        <g transform="matrix(1.02018,0,0,1.16373,298.455,-66.9151)">
            <rect x="443.176" y="151.309" width="49.011" height="98.82" style="fill:rgb(247,247,247);"/>
        </g>
        <g transform="matrix(1.02018,0,0,1.16373,351.724,-66.9151)">
            <rect x="443.176" y="151.309" width="49.011" height="98.82" style="fill:rgb(247,247,247);"/>
        </g>
        <g transform="matrix(1.02018,0,0,1.16373,404.994,-66.9151)">
            <rect x="443.176" y="151.309" width="49.011" height="98.82" style="fill:rgb(247,247,247);"/>
        </g>
        <g transform="matrix(1.02018,0,0,1.16373,458.263,-66.9151)">
            <rect x="443.176" y="151.309" width="49.011" height="98.82" style="fill:rgb(247,247,247);"/>
        </g>
        <g transform="matrix(1.02018,0,0,1.16373,511.532,-66.9151)">
            <rect x="443.176" y="151.309" width="49.011" height="98.82" style="fill:rgb(247,247,247);"/>
        </g>
        <g transform="matrix(1.02018,0,0,1.16373,564.802,-66.9151)">
            <rect x="443.176" y="151.309" width="49.011" height="98.82" style="fill:rgb(247,247,247);"/>
        </g>
        <g transform="matrix(1.02018,0,0,1.16373,618.071,-66.9151)">
            <rect x="443.176" y="151.309" width="49.011" height="98.82" style="fill:rgb(247,247,247);"/>
        </g>
        <g transform="matrix(1.02018,0,0,1.16373,671.341,-66.9151)">
            <rect x="443.176" y="151.309" width="49.011" height="98.82" style="fill:rgb(247,247,247);"/>
        </g>
        <g transform="matrix(1.02018,0,0,1.16373,724.61,-66.9151)">
            <rect x="443.176" y="151.309" width="49.011" height="98.82" style="fill:rgb(247,247,247);"/>
        </g>
        <g transform="matrix(1.02018,0,0,1.16373,777.88,-66.9151)">
            <rect x="443.176" y="151.309" width="49.011" height="98.82" style="fill:rgb(247,247,247);"/>
        </g>
    </g>
    <g transform="matrix(1,0,0,0.932802,-338.22,-76.123)">
        <g transform="matrix(1.41376e-16,-2.27768,1.04521,6.47805e-17,122.91,2245.92)">
            <path d="M950.228,229.915L950.228,277.753C950.228,290.954 944.955,301.672 938.461,301.672L670.182,301.672C663.688,301.672 658.415,290.954 658.415,277.753L658.415,229.915C658.415,216.714 663.688,205.997 670.182,205.997L938.461,205.997C944.955,205.997 950.228,216.714 950.228,229.915Z" style="fill:rgb(159,154,145);"/>
        </g>
        <g transform="matrix(6.12323e-17,-1.07204,1,6.56435e-17,78.0106,1032.4)">
            <g transform="matrix(55.968,0,0,55.968,306.982,330.134)">
                <path d="M0.115,-0L0.115,-0.616L-0.003,-0.616L-0.003,-0.712L0.335,-0.712L0.335,-0.616L0.217,-0.616L0.217,-0L0.115,-0Z" style="fill-rule:nonzero;"/>
            </g>
            <g transform="matrix(55.968,0,0,55.968,325.564,330.134)">
                <path d="M0.042,-0L0.042,-0.712L0.144,-0.712L0.144,-0.458L0.146,-0.458C0.157,-0.474 0.169,-0.487 0.185,-0.498C0.2,-0.508 0.219,-0.513 0.242,-0.513C0.255,-0.513 0.267,-0.511 0.28,-0.507C0.293,-0.502 0.304,-0.495 0.314,-0.485C0.324,-0.475 0.332,-0.462 0.338,-0.447C0.344,-0.431 0.347,-0.412 0.347,-0.389L0.347,-0L0.245,-0L0.245,-0.351C0.245,-0.37 0.241,-0.384 0.232,-0.395C0.223,-0.406 0.211,-0.411 0.195,-0.411C0.176,-0.411 0.162,-0.405 0.155,-0.393C0.148,-0.381 0.144,-0.364 0.144,-0.341L0.144,-0L0.042,-0Z" style="fill-rule:nonzero;"/>
            </g>
        </g>
        <g transform="matrix(3.68889e-17,-0.645841,0.602442,3.95464e-17,313.387,298.953)">
            <g transform="matrix(33.1982,0,0,33.1982,130.368,135.902)">
                <path d="M0.074,-0L0.074,-0.716L0.217,-0.716L0.386,-0.209C0.402,-0.162 0.413,-0.126 0.42,-0.103C0.429,-0.129 0.441,-0.167 0.458,-0.218L0.63,-0.716L0.757,-0.716L0.757,-0L0.666,-0L0.666,-0.599L0.458,-0L0.373,-0L0.166,-0.609L0.166,-0L0.074,-0Z" style="fill-rule:nonzero;"/>
            </g>
            <g transform="matrix(33.1982,0,0,33.1982,158.023,135.902)">
                <path d="M0.404,-0.064C0.372,-0.036 0.34,-0.017 0.31,-0.005C0.28,0.006 0.248,0.012 0.213,0.012C0.156,0.012 0.113,-0.002 0.082,-0.03C0.051,-0.058 0.036,-0.093 0.036,-0.137C0.036,-0.162 0.042,-0.185 0.053,-0.206C0.065,-0.227 0.08,-0.244 0.099,-0.257C0.118,-0.27 0.139,-0.279 0.162,-0.286C0.179,-0.29 0.205,-0.295 0.24,-0.299C0.311,-0.307 0.363,-0.317 0.397,-0.329C0.397,-0.341 0.397,-0.349 0.397,-0.352C0.397,-0.388 0.389,-0.413 0.373,-0.428C0.35,-0.448 0.317,-0.458 0.272,-0.458C0.231,-0.458 0.201,-0.45 0.181,-0.436C0.161,-0.421 0.147,-0.396 0.137,-0.359L0.051,-0.371C0.059,-0.407 0.072,-0.437 0.09,-0.46C0.108,-0.482 0.134,-0.5 0.167,-0.512C0.201,-0.524 0.241,-0.53 0.285,-0.53C0.329,-0.53 0.365,-0.525 0.393,-0.515C0.421,-0.504 0.441,-0.491 0.454,-0.475C0.467,-0.46 0.476,-0.44 0.481,-0.416C0.484,-0.401 0.486,-0.374 0.486,-0.334L0.486,-0.217C0.486,-0.136 0.488,-0.084 0.491,-0.062C0.495,-0.041 0.503,-0.02 0.514,-0L0.422,-0C0.413,-0.018 0.407,-0.04 0.404,-0.064ZM0.397,-0.26C0.365,-0.247 0.317,-0.236 0.253,-0.227C0.217,-0.222 0.192,-0.216 0.177,-0.209C0.162,-0.203 0.15,-0.193 0.142,-0.181C0.134,-0.168 0.13,-0.154 0.13,-0.139C0.13,-0.116 0.139,-0.096 0.156,-0.081C0.174,-0.065 0.2,-0.057 0.234,-0.057C0.268,-0.057 0.298,-0.065 0.325,-0.079C0.351,-0.094 0.37,-0.114 0.383,-0.14C0.392,-0.16 0.397,-0.189 0.397,-0.228L0.397,-0.26Z" style="fill-rule:nonzero;"/>
            </g>
            <g transform="matrix(33.1982,0,0,33.1982,176.486,135.902)">
                <path d="M0.066,-0.615L0.066,-0.716L0.154,-0.716L0.154,-0.615L0.066,-0.615ZM0.066,-0L0.066,-0.519L0.154,-0.519L0.154,-0L0.066,-0Z" style="fill-rule:nonzero;"/>
            </g>
            <g transform="matrix(33.1982,0,0,33.1982,183.861,135.902)">
                <path d="M0.066,-0L0.066,-0.519L0.145,-0.519L0.145,-0.445C0.183,-0.502 0.238,-0.53 0.31,-0.53C0.341,-0.53 0.37,-0.525 0.396,-0.513C0.422,-0.502 0.442,-0.487 0.455,-0.469C0.468,-0.451 0.477,-0.429 0.482,-0.404C0.486,-0.388 0.487,-0.36 0.487,-0.319L0.487,-0L0.399,-0L0.399,-0.315C0.399,-0.351 0.396,-0.378 0.389,-0.396C0.382,-0.413 0.37,-0.428 0.353,-0.438C0.335,-0.449 0.315,-0.454 0.292,-0.454C0.254,-0.454 0.222,-0.442 0.195,-0.418C0.167,-0.395 0.154,-0.35 0.154,-0.283L0.154,-0L0.066,-0Z" style="fill-rule:nonzero;"/>
            </g>
            <g transform="matrix(33.1982,0,0,33.1982,210.948,135.902)">
                <path d="M0.259,-0L0.259,-0.631L0.023,-0.631L0.023,-0.716L0.591,-0.716L0.591,-0.631L0.354,-0.631L0.354,-0L0.259,-0Z" style="fill-rule:nonzero;"/>
            </g>
            <g transform="matrix(33.1982,0,0,33.1982,231.227,135.902)">
                <path d="M0.066,-0L0.066,-0.716L0.154,-0.716L0.154,-0.459C0.195,-0.507 0.247,-0.53 0.309,-0.53C0.347,-0.53 0.381,-0.523 0.409,-0.508C0.438,-0.492 0.458,-0.472 0.47,-0.445C0.482,-0.418 0.488,-0.379 0.488,-0.329L0.488,-0L0.4,-0L0.4,-0.329C0.4,-0.373 0.391,-0.405 0.372,-0.425C0.353,-0.445 0.326,-0.455 0.291,-0.455C0.265,-0.455 0.24,-0.448 0.218,-0.434C0.195,-0.421 0.178,-0.403 0.168,-0.379C0.159,-0.356 0.154,-0.324 0.154,-0.284L0.154,-0L0.066,-0Z" style="fill-rule:nonzero;"/>
            </g>
            <g transform="matrix(33.1982,0,0,33.1982,249.69,135.902)">
                <path d="M0.065,-0L0.065,-0.519L0.144,-0.519L0.144,-0.44C0.164,-0.477 0.183,-0.501 0.2,-0.513C0.217,-0.524 0.236,-0.53 0.256,-0.53C0.286,-0.53 0.316,-0.521 0.347,-0.502L0.316,-0.42C0.295,-0.433 0.273,-0.439 0.252,-0.439C0.233,-0.439 0.215,-0.434 0.2,-0.422C0.185,-0.411 0.174,-0.395 0.167,-0.374C0.158,-0.343 0.153,-0.309 0.153,-0.271L0.153,-0L0.065,-0Z" style="fill-rule:nonzero;"/>
            </g>
            <g transform="matrix(33.1982,0,0,33.1982,260.746,135.902)">
                <path d="M0.421,-0.167L0.512,-0.156C0.497,-0.103 0.471,-0.062 0.432,-0.032C0.393,-0.003 0.344,0.012 0.284,0.012C0.208,0.012 0.148,-0.012 0.103,-0.058C0.059,-0.105 0.037,-0.171 0.037,-0.255C0.037,-0.342 0.059,-0.41 0.104,-0.458C0.149,-0.506 0.207,-0.53 0.279,-0.53C0.348,-0.53 0.405,-0.507 0.449,-0.459C0.493,-0.412 0.515,-0.346 0.515,-0.26C0.515,-0.255 0.514,-0.247 0.514,-0.237L0.127,-0.237C0.131,-0.18 0.147,-0.136 0.176,-0.106C0.205,-0.076 0.241,-0.061 0.284,-0.061C0.316,-0.061 0.344,-0.069 0.367,-0.086C0.389,-0.103 0.408,-0.13 0.421,-0.167ZM0.132,-0.309L0.422,-0.309C0.418,-0.353 0.407,-0.385 0.389,-0.407C0.361,-0.441 0.324,-0.458 0.28,-0.458C0.239,-0.458 0.205,-0.444 0.178,-0.417C0.15,-0.39 0.135,-0.354 0.132,-0.309Z" style="fill-rule:nonzero;"/>
            </g>
            <g transform="matrix(33.1982,0,0,33.1982,279.209,135.902)">
                <path d="M0.404,-0.064C0.372,-0.036 0.34,-0.017 0.31,-0.005C0.28,0.006 0.248,0.012 0.213,0.012C0.156,0.012 0.113,-0.002 0.082,-0.03C0.051,-0.058 0.036,-0.093 0.036,-0.137C0.036,-0.162 0.042,-0.185 0.053,-0.206C0.065,-0.227 0.08,-0.244 0.099,-0.257C0.118,-0.27 0.139,-0.279 0.162,-0.286C0.179,-0.29 0.205,-0.295 0.24,-0.299C0.311,-0.307 0.363,-0.317 0.397,-0.329C0.397,-0.341 0.397,-0.349 0.397,-0.352C0.397,-0.388 0.389,-0.413 0.373,-0.428C0.35,-0.448 0.317,-0.458 0.272,-0.458C0.231,-0.458 0.201,-0.45 0.181,-0.436C0.161,-0.421 0.147,-0.396 0.137,-0.359L0.051,-0.371C0.059,-0.407 0.072,-0.437 0.09,-0.46C0.108,-0.482 0.134,-0.5 0.167,-0.512C0.201,-0.524 0.241,-0.53 0.285,-0.53C0.329,-0.53 0.365,-0.525 0.393,-0.515C0.421,-0.504 0.441,-0.491 0.454,-0.475C0.467,-0.46 0.476,-0.44 0.481,-0.416C0.484,-0.401 0.486,-0.374 0.486,-0.334L0.486,-0.217C0.486,-0.136 0.488,-0.084 0.491,-0.062C0.495,-0.041 0.503,-0.02 0.514,-0L0.422,-0C0.413,-0.018 0.407,-0.04 0.404,-0.064ZM0.397,-0.26C0.365,-0.247 0.317,-0.236 0.253,-0.227C0.217,-0.222 0.192,-0.216 0.177,-0.209C0.162,-0.203 0.15,-0.193 0.142,-0.181C0.134,-0.168 0.13,-0.154 0.13,-0.139C0.13,-0.116 0.139,-0.096 0.156,-0.081C0.174,-0.065 0.2,-0.057 0.234,-0.057C0.268,-0.057 0.298,-0.065 0.325,-0.079C0.351,-0.094 0.37,-0.114 0.383,-0.14C0.392,-0.16 0.397,-0.189 0.397,-0.228L0.397,-0.26Z" style="fill-rule:nonzero;"/>
            </g>
            <g transform="matrix(33.1982,0,0,33.1982,297.672,135.902)">
                <path d="M0.402,-0L0.402,-0.065C0.369,-0.014 0.321,0.012 0.257,0.012C0.216,0.012 0.178,0 0.143,-0.022C0.109,-0.045 0.082,-0.077 0.063,-0.118C0.044,-0.159 0.034,-0.206 0.034,-0.259C0.034,-0.311 0.043,-0.358 0.06,-0.4C0.077,-0.442 0.103,-0.474 0.138,-0.497C0.172,-0.519 0.211,-0.53 0.253,-0.53C0.285,-0.53 0.313,-0.524 0.337,-0.51C0.361,-0.497 0.381,-0.48 0.396,-0.459L0.396,-0.716L0.484,-0.716L0.484,-0L0.402,-0ZM0.125,-0.259C0.125,-0.192 0.139,-0.143 0.167,-0.11C0.194,-0.077 0.228,-0.061 0.266,-0.061C0.304,-0.061 0.337,-0.076 0.364,-0.108C0.39,-0.139 0.404,-0.187 0.404,-0.251C0.404,-0.322 0.39,-0.375 0.363,-0.408C0.335,-0.441 0.302,-0.458 0.262,-0.458C0.223,-0.458 0.19,-0.442 0.164,-0.41C0.138,-0.378 0.125,-0.327 0.125,-0.259Z" style="fill-rule:nonzero;"/>
            </g>
        </g>
    </g>
    <g transform="matrix(1.02915,0,0,1,733.747,-192.392)">
        <g transform="matrix(0.133192,0,0,1.04521,295.839,110.831)">
            <path d="M950.228,215.564L950.228,292.104C950.228,297.384 917.539,301.672 877.275,301.672L731.368,301.672C691.104,301.672 658.415,297.384 658.415,292.104L658.415,215.564C658.415,210.284 691.104,205.997 731.368,205.997L877.275,205.997C917.539,205.997 950.228,210.284 950.228,215.564Z" style="fill:rgb(41,120,160);"/>
        </g>
        <g transform="matrix(1,0,0,1,94.9371,-43.8915)">
            <g transform="matrix(1,0,0,1,-9.23915,109.823)">
                <g transform="matrix(55.968,0,0,55.968,306.982,330.134)">
                    <path d="M0.115,-0L0.115,-0.616L-0.003,-0.616L-0.003,-0.712L0.335,-0.712L0.335,-0.616L0.217,-0.616L0.217,-0L0.115,-0Z" style="fill-rule:nonzero;"/>
                </g>
            </g>
            <g transform="matrix(1,0,0,1,-104.561,58.4836)">
                <g transform="matrix(17.49,0,0,17.49,418.972,381.473)">
                    <path d="M0.055,-0L0.055,-0.427L0.005,-0.427L0.005,-0.507L0.055,-0.507L0.055,-0.576C0.055,-0.601 0.059,-0.622 0.066,-0.639C0.073,-0.656 0.083,-0.67 0.096,-0.681C0.108,-0.692 0.122,-0.7 0.138,-0.705C0.153,-0.71 0.169,-0.712 0.186,-0.712L0.233,-0.712L0.233,-0.616L0.187,-0.616C0.167,-0.616 0.157,-0.604 0.157,-0.581L0.157,-0.507L0.233,-0.507L0.233,-0.427L0.157,-0.427L0.157,-0L0.055,-0Z" style="fill-rule:nonzero;"/>
                </g>
            </g>
        </g>
    </g>
    <g transform="matrix(1.02915,0,0,1,573.939,-192.392)">
        <g transform="matrix(0.133192,0,0,1.04521,295.839,110.831)">
            <path d="M950.228,215.564L950.228,292.104C950.228,297.384 917.539,301.672 877.275,301.672L731.368,301.672C691.104,301.672 658.415,297.384 658.415,292.104L658.415,215.564C658.415,210.284 691.104,205.997 731.368,205.997L877.275,205.997C917.539,205.997 950.228,210.284 950.228,215.564Z" style="fill:rgb(41,120,160);"/>
        </g>
        <g transform="matrix(1,0,0,1,94.9371,-43.8915)">
            <g transform="matrix(1,0,0,1,-9.23915,109.823)">
                <g transform="matrix(55.968,0,0,55.968,306.982,330.134)">
                    <path d="M0.115,-0L0.115,-0.616L-0.003,-0.616L-0.003,-0.712L0.335,-0.712L0.335,-0.616L0.217,-0.616L0.217,-0L0.115,-0Z" style="fill-rule:nonzero;"/>
                </g>
            </g>
            <g transform="matrix(1,0,0,1,-104.561,58.4836)">
                <g transform="matrix(17.49,0,0,17.49,418.972,381.473)">
                    <path d="M0.055,-0L0.055,-0.427L0.005,-0.427L0.005,-0.507L0.055,-0.507L0.055,-0.576C0.055,-0.601 0.059,-0.622 0.066,-0.639C0.073,-0.656 0.083,-0.67 0.096,-0.681C0.108,-0.692 0.122,-0.7 0.138,-0.705C0.153,-0.71 0.169,-0.712 0.186,-0.712L0.233,-0.712L0.233,-0.616L0.187,-0.616C0.167,-0.616 0.157,-0.604 0.157,-0.581L0.157,-0.507L0.233,-0.507L0.233,-0.427L0.157,-0.427L0.157,-0L0.055,-0Z" style="fill-rule:nonzero;"/>
                </g>
            </g>
        </g>
    </g>
    <g transform="matrix(1.02915,0,0,1,360.861,-192.392)">
        <g transform="matrix(0.133192,0,0,1.04521,295.839,110.831)">
            <path d="M950.228,215.564L950.228,292.104C950.228,297.384 917.539,301.672 877.275,301.672L731.368,301.672C691.104,301.672 658.415,297.384 658.415,292.104L658.415,215.564C658.415,210.284 691.104,205.997 731.368,205.997L877.275,205.997C917.539,205.997 950.228,210.284 950.228,215.564Z" style="fill:rgb(41,120,160);"/>
        </g>
        <g transform="matrix(1,0,0,1,94.9371,-43.8915)">
            <g transform="matrix(1,0,0,1,-9.23915,109.823)">
                <g transform="matrix(55.968,0,0,55.968,306.982,330.134)">
                    <path d="M0.115,-0L0.115,-0.616L-0.003,-0.616L-0.003,-0.712L0.335,-0.712L0.335,-0.616L0.217,-0.616L0.217,-0L0.115,-0Z" style="fill-rule:nonzero;"/>
                </g>
            </g>
            <g transform="matrix(1,0,0,1,-104.561,58.4836)">
                <g transform="matrix(17.49,0,0,17.49,418.972,381.473)">
                    <path d="M0.055,-0L0.055,-0.427L0.005,-0.427L0.005,-0.507L0.055,-0.507L0.055,-0.576C0.055,-0.601 0.059,-0.622 0.066,-0.639C0.073,-0.656 0.083,-0.67 0.096,-0.681C0.108,-0.692 0.122,-0.7 0.138,-0.705C0.153,-0.71 0.169,-0.712 0.186,-0.712L0.233,-0.712L0.233,-0.616L0.187,-0.616C0.167,-0.616 0.157,-0.604 0.157,-0.581L0.157,-0.507L0.233,-0.507L0.233,-0.427L0.157,-0.427L0.157,-0L0.055,-0Z" style="fill-rule:nonzero;"/>
                </g>
            </g>
        </g>
    </g>
    <g transform="matrix(1.02915,0,0,1,147.784,-192.392)">
        <g transform="matrix(0.133192,0,0,1.04521,295.839,110.831)">
            <path d="M950.228,215.564L950.228,292.104C950.228,297.384 917.539,301.672 877.275,301.672L731.368,301.672C691.104,301.672 658.415,297.384 658.415,292.104L658.415,215.564C658.415,210.284 691.104,205.997 731.368,205.997L877.275,205.997C917.539,205.997 950.228,210.284 950.228,215.564Z" style="fill:rgb(41,120,160);"/>
        </g>
        <g transform="matrix(1,0,0,1,94.9371,-43.8915)">
            <g transform="matrix(1,0,0,1,-9.23915,109.823)">
                <g transform="matrix(55.968,0,0,55.968,306.982,330.134)">
                    <path d="M0.115,-0L0.115,-0.616L-0.003,-0.616L-0.003,-0.712L0.335,-0.712L0.335,-0.616L0.217,-0.616L0.217,-0L0.115,-0Z" style="fill-rule:nonzero;"/>
                </g>
            </g>
            <g transform="matrix(1,0,0,1,-104.561,58.4836)">
                <g transform="matrix(17.49,0,0,17.49,418.972,381.473)">
                    <path d="M0.055,-0L0.055,-0.427L0.005,-0.427L0.005,-0.507L0.055,-0.507L0.055,-0.576C0.055,-0.601 0.059,-0.622 0.066,-0.639C0.073,-0.656 0.083,-0.67 0.096,-0.681C0.108,-0.692 0.122,-0.7 0.138,-0.705C0.153,-0.71 0.169,-0.712 0.186,-0.712L0.233,-0.712L0.233,-0.616L0.187,-0.616C0.167,-0.616 0.157,-0.604 0.157,-0.581L0.157,-0.507L0.233,-0.507L0.233,-0.427L0.157,-0.427L0.157,-0L0.055,-0Z" style="fill-rule:nonzero;"/>
                </g>
            </g>
        </g>
    </g>
    <g transform="matrix(1.02915,0,0,1,-12.0247,-192.392)">
        <g transform="matrix(0.133192,0,0,1.04521,295.839,110.831)">
            <path d="M950.228,215.564L950.228,292.104C950.228,297.384 917.539,301.672 877.275,301.672L731.368,301.672C691.104,301.672 658.415,297.384 658.415,292.104L658.415,215.564C658.415,210.284 691.104,205.997 731.368,205.997L877.275,205.997C917.539,205.997 950.228,210.284 950.228,215.564Z" style="fill:rgb(41,120,160);"/>
        </g>
        <g transform="matrix(1,0,0,1,94.9371,-43.8915)">
            <g transform="matrix(1,0,0,1,-9.23915,109.823)">
                <g transform="matrix(55.968,0,0,55.968,306.982,330.134)">
                    <path d="M0.115,-0L0.115,-0.616L-0.003,-0.616L-0.003,-0.712L0.335,-0.712L0.335,-0.616L0.217,-0.616L0.217,-0L0.115,-0Z" style="fill-rule:nonzero;"/>
                </g>
            </g>
            <g transform="matrix(1,0,0,1,-104.561,58.4836)">
                <g transform="matrix(17.49,0,0,17.49,418.972,381.473)">
                    <path d="M0.055,-0L0.055,-0.427L0.005,-0.427L0.005,-0.507L0.055,-0.507L0.055,-0.576C0.055,-0.601 0.059,-0.622 0.066,-0.639C0.073,-0.656 0.083,-0.67 0.096,-0.681C0.108,-0.692 0.122,-0.7 0.138,-0.705C0.153,-0.71 0.169,-0.712 0.186,-0.712L0.233,-0.712L0.233,-0.616L0.187,-0.616C0.167,-0.616 0.157,-0.604 0.157,-0.581L0.157,-0.507L0.233,-0.507L0.233,-0.427L0.157,-0.427L0.157,-0L0.055,-0Z" style="fill-rule:nonzero;"/>
                </g>
            </g>
        </g>
    </g>
    <g transform="matrix(1,0,0,1,-847.234,-193.538)">
        <g>
            <g transform="matrix(0.856713,0,0,1.04521,401.041,-11.5163)">
                <path d="M950.228,229.915L950.228,277.753C950.228,290.954 937.152,301.672 921.047,301.672L687.596,301.672C671.491,301.672 658.415,290.954 658.415,277.753L658.415,229.915C658.415,216.714 671.491,205.997 687.596,205.997L921.047,205.997C937.152,205.997 950.228,216.714 950.228,229.915Z" style="fill:rgb(41,120,160);"/>
            </g>
            <g transform="matrix(1,0,0,1,725.659,202.01)">
                <g transform="matrix(20,0,0,20,347.335,58.7551)">
                    <rect x="0.093" y="-0.716" width="0.095" height="0.716" style="fill-rule:nonzero;"/>
                </g>
                <g transform="matrix(20,0,0,20,352.892,58.7551)">
                    <path d="M0.066,-0L0.066,-0.519L0.145,-0.519L0.145,-0.445C0.183,-0.502 0.238,-0.53 0.31,-0.53C0.341,-0.53 0.37,-0.525 0.396,-0.513C0.422,-0.502 0.442,-0.487 0.455,-0.469C0.468,-0.451 0.477,-0.429 0.482,-0.404C0.486,-0.388 0.487,-0.36 0.487,-0.319L0.487,-0L0.399,-0L0.399,-0.315C0.399,-0.351 0.396,-0.378 0.389,-0.396C0.382,-0.413 0.37,-0.428 0.353,-0.438C0.335,-0.449 0.315,-0.454 0.292,-0.454C0.254,-0.454 0.222,-0.442 0.195,-0.418C0.167,-0.395 0.154,-0.35 0.154,-0.283L0.154,-0L0.066,-0Z" style="fill-rule:nonzero;"/>
                </g>
                <g transform="matrix(20,0,0,20,364.015,58.7551)">
                    <path d="M0.066,-0.615L0.066,-0.716L0.154,-0.716L0.154,-0.615L0.066,-0.615ZM0.066,-0L0.066,-0.519L0.154,-0.519L0.154,-0L0.066,-0Z" style="fill-rule:nonzero;"/>
                </g>
                <g transform="matrix(20,0,0,20,368.458,58.7551)">
                    <path d="M0.258,-0.079L0.271,-0.001C0.246,0.004 0.224,0.007 0.204,0.007C0.172,0.007 0.147,0.002 0.13,-0.008C0.112,-0.018 0.1,-0.032 0.093,-0.048C0.086,-0.065 0.082,-0.099 0.082,-0.152L0.082,-0.45L0.018,-0.45L0.018,-0.519L0.082,-0.519L0.082,-0.647L0.169,-0.7L0.169,-0.519L0.258,-0.519L0.258,-0.45L0.169,-0.45L0.169,-0.147C0.169,-0.122 0.171,-0.106 0.174,-0.099C0.177,-0.091 0.182,-0.086 0.189,-0.082C0.196,-0.077 0.206,-0.075 0.219,-0.075C0.229,-0.075 0.242,-0.076 0.258,-0.079Z" style="fill-rule:nonzero;"/>
                </g>
                <g transform="matrix(20,0,0,20,374.015,58.7551)">
                    <path d="M0.066,-0.615L0.066,-0.716L0.154,-0.716L0.154,-0.615L0.066,-0.615ZM0.066,-0L0.066,-0.519L0.154,-0.519L0.154,-0L0.066,-0Z" style="fill-rule:nonzero;"/>
                </g>
                <g transform="matrix(20,0,0,20,378.458,58.7551)">
                    <path d="M0.404,-0.064C0.372,-0.036 0.34,-0.017 0.31,-0.005C0.28,0.006 0.248,0.012 0.213,0.012C0.156,0.012 0.113,-0.002 0.082,-0.03C0.051,-0.058 0.036,-0.093 0.036,-0.137C0.036,-0.162 0.042,-0.185 0.053,-0.206C0.065,-0.227 0.08,-0.244 0.099,-0.257C0.118,-0.27 0.139,-0.279 0.162,-0.286C0.179,-0.29 0.205,-0.295 0.24,-0.299C0.311,-0.307 0.363,-0.317 0.397,-0.329C0.397,-0.341 0.397,-0.349 0.397,-0.352C0.397,-0.388 0.389,-0.413 0.373,-0.428C0.35,-0.448 0.317,-0.458 0.272,-0.458C0.231,-0.458 0.201,-0.45 0.181,-0.436C0.161,-0.421 0.147,-0.396 0.137,-0.359L0.051,-0.371C0.059,-0.407 0.072,-0.437 0.09,-0.46C0.108,-0.482 0.134,-0.5 0.167,-0.512C0.201,-0.524 0.241,-0.53 0.285,-0.53C0.329,-0.53 0.365,-0.525 0.393,-0.515C0.421,-0.504 0.441,-0.491 0.454,-0.475C0.467,-0.46 0.476,-0.44 0.481,-0.416C0.484,-0.401 0.486,-0.374 0.486,-0.334L0.486,-0.217C0.486,-0.136 0.488,-0.084 0.491,-0.062C0.495,-0.041 0.503,-0.02 0.514,-0L0.422,-0C0.413,-0.018 0.407,-0.04 0.404,-0.064ZM0.397,-0.26C0.365,-0.247 0.317,-0.236 0.253,-0.227C0.217,-0.222 0.192,-0.216 0.177,-0.209C0.162,-0.203 0.15,-0.193 0.142,-0.181C0.134,-0.168 0.13,-0.154 0.13,-0.139C0.13,-0.116 0.139,-0.096 0.156,-0.081C0.174,-0.065 0.2,-0.057 0.234,-0.057C0.268,-0.057 0.298,-0.065 0.325,-0.079C0.351,-0.094 0.37,-0.114 0.383,-0.14C0.392,-0.16 0.397,-0.189 0.397,-0.228L0.397,-0.26Z" style="fill-rule:nonzero;"/>
                </g>
                <g transform="matrix(20,0,0,20,389.581,58.7551)">
                    <rect x="0.064" y="-0.716" width="0.088" height="0.716" style="fill-rule:nonzero;"/>
                </g>
                <g transform="matrix(20,0,0,20,394.025,58.7551)">
                    <path d="M0.066,-0.615L0.066,-0.716L0.154,-0.716L0.154,-0.615L0.066,-0.615ZM0.066,-0L0.066,-0.519L0.154,-0.519L0.154,-0L0.066,-0Z" style="fill-rule:nonzero;"/>
                </g>
                <g transform="matrix(20,0,0,20,398.468,58.7551)">
                    <path d="M0.02,-0L0.02,-0.071L0.35,-0.45C0.312,-0.448 0.279,-0.447 0.25,-0.447L0.039,-0.447L0.039,-0.519L0.463,-0.519L0.463,-0.46L0.182,-0.131L0.128,-0.071C0.167,-0.074 0.204,-0.076 0.239,-0.076L0.479,-0.076L0.479,-0L0.02,-0Z" style="fill-rule:nonzero;"/>
                </g>
                <g transform="matrix(20,0,0,20,408.468,58.7551)">
                    <path d="M0.066,-0.615L0.066,-0.716L0.154,-0.716L0.154,-0.615L0.066,-0.615ZM0.066,-0L0.066,-0.519L0.154,-0.519L0.154,-0L0.066,-0Z" style="fill-rule:nonzero;"/>
                </g>
                <g transform="matrix(20,0,0,20,412.911,58.7551)">
                    <path d="M0.066,-0L0.066,-0.519L0.145,-0.519L0.145,-0.445C0.183,-0.502 0.238,-0.53 0.31,-0.53C0.341,-0.53 0.37,-0.525 0.396,-0.513C0.422,-0.502 0.442,-0.487 0.455,-0.469C0.468,-0.451 0.477,-0.429 0.482,-0.404C0.486,-0.388 0.487,-0.36 0.487,-0.319L0.487,-0L0.399,-0L0.399,-0.315C0.399,-0.351 0.396,-0.378 0.389,-0.396C0.382,-0.413 0.37,-0.428 0.353,-0.438C0.335,-0.449 0.315,-0.454 0.292,-0.454C0.254,-0.454 0.222,-0.442 0.195,-0.418C0.167,-0.395 0.154,-0.35 0.154,-0.283L0.154,-0L0.066,-0Z" style="fill-rule:nonzero;"/>
                </g>
                <g transform="matrix(20,0,0,20,424.034,58.7551)">
                    <path d="M0.05,0.043L0.135,0.056C0.139,0.082 0.149,0.101 0.165,0.113C0.187,0.13 0.217,0.138 0.254,0.138C0.295,0.138 0.326,0.13 0.349,0.113C0.371,0.097 0.386,0.074 0.394,0.045C0.398,0.027 0.4,-0.011 0.4,-0.068C0.361,-0.023 0.314,-0 0.256,-0C0.185,-0 0.13,-0.026 0.091,-0.077C0.052,-0.129 0.032,-0.19 0.032,-0.262C0.032,-0.312 0.041,-0.357 0.059,-0.399C0.077,-0.441 0.103,-0.473 0.137,-0.496C0.171,-0.519 0.211,-0.53 0.257,-0.53C0.318,-0.53 0.368,-0.506 0.408,-0.456L0.408,-0.519L0.489,-0.519L0.489,-0.07C0.489,0.01 0.481,0.068 0.465,0.101C0.448,0.135 0.422,0.162 0.386,0.181C0.351,0.201 0.307,0.21 0.255,0.21C0.193,0.21 0.143,0.197 0.105,0.169C0.067,0.141 0.049,0.099 0.05,0.043ZM0.123,-0.269C0.123,-0.201 0.136,-0.151 0.163,-0.12C0.19,-0.088 0.224,-0.073 0.265,-0.073C0.305,-0.073 0.339,-0.088 0.366,-0.119C0.394,-0.15 0.407,-0.199 0.407,-0.266C0.407,-0.329 0.393,-0.377 0.365,-0.409C0.337,-0.441 0.303,-0.458 0.263,-0.458C0.224,-0.458 0.191,-0.442 0.164,-0.41C0.136,-0.378 0.123,-0.331 0.123,-0.269Z" style="fill-rule:nonzero;"/>
                </g>
                <g transform="matrix(20,0,0,20,440.353,58.7551)">
                    <path d="M0.259,-0L0.259,-0.631L0.023,-0.631L0.023,-0.716L0.591,-0.716L0.591,-0.631L0.354,-0.631L0.354,-0L0.259,-0Z" style="fill-rule:nonzero;"/>
                </g>
                <g transform="matrix(20,0,0,20,450.353,58.7551)">
                    <path d="M0.404,-0.064C0.372,-0.036 0.34,-0.017 0.31,-0.005C0.28,0.006 0.248,0.012 0.213,0.012C0.156,0.012 0.113,-0.002 0.082,-0.03C0.051,-0.058 0.036,-0.093 0.036,-0.137C0.036,-0.162 0.042,-0.185 0.053,-0.206C0.065,-0.227 0.08,-0.244 0.099,-0.257C0.118,-0.27 0.139,-0.279 0.162,-0.286C0.179,-0.29 0.205,-0.295 0.24,-0.299C0.311,-0.307 0.363,-0.317 0.397,-0.329C0.397,-0.341 0.397,-0.349 0.397,-0.352C0.397,-0.388 0.389,-0.413 0.373,-0.428C0.35,-0.448 0.317,-0.458 0.272,-0.458C0.231,-0.458 0.201,-0.45 0.181,-0.436C0.161,-0.421 0.147,-0.396 0.137,-0.359L0.051,-0.371C0.059,-0.407 0.072,-0.437 0.09,-0.46C0.108,-0.482 0.134,-0.5 0.167,-0.512C0.201,-0.524 0.241,-0.53 0.285,-0.53C0.329,-0.53 0.365,-0.525 0.393,-0.515C0.421,-0.504 0.441,-0.491 0.454,-0.475C0.467,-0.46 0.476,-0.44 0.481,-0.416C0.484,-0.401 0.486,-0.374 0.486,-0.334L0.486,-0.217C0.486,-0.136 0.488,-0.084 0.491,-0.062C0.495,-0.041 0.503,-0.02 0.514,-0L0.422,-0C0.413,-0.018 0.407,-0.04 0.404,-0.064ZM0.397,-0.26C0.365,-0.247 0.317,-0.236 0.253,-0.227C0.217,-0.222 0.192,-0.216 0.177,-0.209C0.162,-0.203 0.15,-0.193 0.142,-0.181C0.134,-0.168 0.13,-0.154 0.13,-0.139C0.13,-0.116 0.139,-0.096 0.156,-0.081C0.174,-0.065 0.2,-0.057 0.234,-0.057C0.268,-0.057 0.298,-0.065 0.325,-0.079C0.351,-0.094 0.37,-0.114 0.383,-0.14C0.392,-0.16 0.397,-0.189 0.397,-0.228L0.397,-0.26Z" style="fill-rule:nonzero;"/>
                </g>
                <g transform="matrix(20,0,0,20,461.476,58.7551)">
                    <path d="M0.031,-0.155L0.118,-0.168C0.123,-0.134 0.136,-0.107 0.158,-0.088C0.181,-0.07 0.212,-0.061 0.252,-0.061C0.292,-0.061 0.322,-0.069 0.342,-0.085C0.361,-0.102 0.371,-0.121 0.371,-0.143C0.371,-0.163 0.362,-0.179 0.345,-0.19C0.333,-0.198 0.303,-0.208 0.255,-0.22C0.191,-0.236 0.146,-0.25 0.121,-0.262C0.096,-0.274 0.078,-0.29 0.065,-0.311C0.052,-0.332 0.045,-0.355 0.045,-0.381C0.045,-0.404 0.051,-0.425 0.061,-0.445C0.072,-0.465 0.086,-0.481 0.104,-0.494C0.118,-0.504 0.137,-0.513 0.16,-0.52C0.184,-0.527 0.209,-0.53 0.236,-0.53C0.277,-0.53 0.313,-0.524 0.344,-0.513C0.374,-0.501 0.397,-0.485 0.412,-0.465C0.426,-0.445 0.436,-0.418 0.442,-0.385L0.356,-0.373C0.352,-0.4 0.341,-0.421 0.322,-0.436C0.303,-0.451 0.277,-0.458 0.243,-0.458C0.202,-0.458 0.174,-0.451 0.156,-0.438C0.139,-0.425 0.13,-0.409 0.13,-0.391C0.13,-0.38 0.134,-0.369 0.141,-0.36C0.148,-0.351 0.16,-0.343 0.175,-0.337C0.184,-0.334 0.209,-0.326 0.252,-0.314C0.315,-0.298 0.358,-0.284 0.383,-0.274C0.407,-0.263 0.426,-0.248 0.44,-0.228C0.454,-0.207 0.461,-0.182 0.461,-0.152C0.461,-0.123 0.453,-0.095 0.436,-0.07C0.419,-0.044 0.394,-0.024 0.362,-0.01C0.33,0.005 0.293,0.012 0.252,0.012C0.185,0.012 0.134,-0.002 0.098,-0.03C0.063,-0.058 0.041,-0.1 0.031,-0.155Z" style="fill-rule:nonzero;"/>
                </g>
                <g transform="matrix(20,0,0,20,471.476,58.7551)">
                    <path d="M0.066,-0L0.066,-0.716L0.154,-0.716L0.154,-0.308L0.362,-0.519L0.476,-0.519L0.278,-0.326L0.496,-0L0.388,-0L0.216,-0.265L0.154,-0.206L0.154,-0L0.066,-0Z" style="fill-rule:nonzero;"/>
                </g>
            </g>
            <g transform="matrix(1,0,0,1,694.835,-44.4041)">
                <g transform="matrix(1,0,0,1,-14.822,-11.9048)">
                    <g transform="matrix(55.968,0,0,55.968,306.982,330.134)">
                        <path d="M0.115,-0L0.115,-0.616L-0.003,-0.616L-0.003,-0.712L0.335,-0.712L0.335,-0.616L0.217,-0.616L0.217,-0L0.115,-0Z" style="fill-rule:nonzero;"/>
                    </g>
                </g>
                <g transform="matrix(1,0,0,1,-164.972,7.51182)">
                    <g transform="matrix(17.49,0,0,17.49,474.255,310.717)">
                        <path d="M0.042,-0L0.042,-0.507L0.144,-0.507L0.144,-0L0.042,-0ZM0.042,-0.61L0.042,-0.712L0.144,-0.712L0.144,-0.61L0.042,-0.61Z" style="fill-rule:nonzero;"/>
                    </g>
                </g>
            </g>
        </g>
    </g>
    <g transform="matrix(1.02915,0,0,1,415.644,110.869)">
        <g transform="matrix(0.133192,0,0,1.04521,295.839,-65.0802)">
            <path d="M950.228,215.564L950.228,292.104C950.228,297.384 917.539,301.672 877.275,301.672L731.368,301.672C691.104,301.672 658.415,297.384 658.415,292.104L658.415,215.564C658.415,210.284 691.104,205.997 731.368,205.997L877.275,205.997C917.539,205.997 950.228,210.284 950.228,215.564Z" style="fill:rgb(41,120,160);"/>
        </g>
        <g transform="matrix(1,0,0,1,96.7394,-154.845)">
            <g transform="matrix(1,0,0,1,-11.3738,44.8655)">
                <g transform="matrix(55.968,0,0,55.968,306.982,330.134)">
                    <path d="M0.115,-0L0.115,-0.616L-0.003,-0.616L-0.003,-0.712L0.335,-0.712L0.335,-0.616L0.217,-0.616L0.217,-0L0.115,-0Z" style="fill-rule:nonzero;"/>
                </g>
            </g>
            <g transform="matrix(1,0,0,1,-72.3468,28.8684)">
                <g transform="matrix(17.49,0,0,17.49,383.469,346.026)">
                    <path d="M0.337,-0.215L0.135,-0.215L0.135,-0.146C0.135,-0.13 0.139,-0.118 0.149,-0.109C0.158,-0.1 0.17,-0.096 0.185,-0.096C0.204,-0.096 0.217,-0.102 0.224,-0.113C0.23,-0.124 0.234,-0.136 0.235,-0.147L0.337,-0.147C0.337,-0.102 0.323,-0.066 0.296,-0.039C0.283,-0.025 0.267,-0.014 0.248,-0.006C0.229,0.002 0.208,0.006 0.185,0.006C0.153,0.006 0.126,-0.001 0.104,-0.014C0.081,-0.027 0.064,-0.045 0.052,-0.067C0.045,-0.08 0.04,-0.096 0.037,-0.113C0.034,-0.13 0.033,-0.149 0.033,-0.17L0.033,-0.337C0.033,-0.358 0.034,-0.377 0.037,-0.394C0.04,-0.411 0.045,-0.427 0.052,-0.44C0.064,-0.462 0.081,-0.48 0.104,-0.493C0.126,-0.506 0.153,-0.513 0.185,-0.513C0.208,-0.513 0.23,-0.509 0.249,-0.501C0.268,-0.493 0.284,-0.482 0.297,-0.468C0.324,-0.438 0.337,-0.4 0.337,-0.355L0.337,-0.215ZM0.135,-0.295L0.235,-0.295L0.235,-0.353C0.235,-0.372 0.231,-0.387 0.222,-0.397C0.213,-0.406 0.2,-0.411 0.185,-0.411C0.17,-0.411 0.158,-0.406 0.149,-0.397C0.139,-0.387 0.135,-0.372 0.135,-0.353L0.135,-0.295Z" style="fill-rule:nonzero;"/>
                </g>
            </g>
        </g>
    </g>
    <g transform="matrix(1.02915,0,0,1,201.053,109.767)">
        <g transform="matrix(0.133192,0,0,1.04521,295.839,-65.0802)">
            <path d="M950.228,215.564L950.228,292.104C950.228,297.384 917.539,301.672 877.275,301.672L731.368,301.672C691.104,301.672 658.415,297.384 658.415,292.104L658.415,215.564C658.415,210.284 691.104,205.997 731.368,205.997L877.275,205.997C917.539,205.997 950.228,210.284 950.228,215.564Z" style="fill:rgb(41,120,160);"/>
        </g>
        <g transform="matrix(1,0,0,1,96.7394,-154.845)">
            <g transform="matrix(1,0,0,1,-11.3738,44.8655)">
                <g transform="matrix(55.968,0,0,55.968,306.982,330.134)">
                    <path d="M0.115,-0L0.115,-0.616L-0.003,-0.616L-0.003,-0.712L0.335,-0.712L0.335,-0.616L0.217,-0.616L0.217,-0L0.115,-0Z" style="fill-rule:nonzero;"/>
                </g>
            </g>
            <g transform="matrix(1,0,0,1,-72.3468,28.8684)">
                <g transform="matrix(17.49,0,0,17.49,383.469,346.026)">
                    <path d="M0.337,-0.215L0.135,-0.215L0.135,-0.146C0.135,-0.13 0.139,-0.118 0.149,-0.109C0.158,-0.1 0.17,-0.096 0.185,-0.096C0.204,-0.096 0.217,-0.102 0.224,-0.113C0.23,-0.124 0.234,-0.136 0.235,-0.147L0.337,-0.147C0.337,-0.102 0.323,-0.066 0.296,-0.039C0.283,-0.025 0.267,-0.014 0.248,-0.006C0.229,0.002 0.208,0.006 0.185,0.006C0.153,0.006 0.126,-0.001 0.104,-0.014C0.081,-0.027 0.064,-0.045 0.052,-0.067C0.045,-0.08 0.04,-0.096 0.037,-0.113C0.034,-0.13 0.033,-0.149 0.033,-0.17L0.033,-0.337C0.033,-0.358 0.034,-0.377 0.037,-0.394C0.04,-0.411 0.045,-0.427 0.052,-0.44C0.064,-0.462 0.081,-0.48 0.104,-0.493C0.126,-0.506 0.153,-0.513 0.185,-0.513C0.208,-0.513 0.23,-0.509 0.249,-0.501C0.268,-0.493 0.284,-0.482 0.297,-0.468C0.324,-0.438 0.337,-0.4 0.337,-0.355L0.337,-0.215ZM0.135,-0.295L0.235,-0.295L0.235,-0.353C0.235,-0.372 0.231,-0.387 0.222,-0.397C0.213,-0.406 0.2,-0.411 0.185,-0.411C0.17,-0.411 0.158,-0.406 0.149,-0.397C0.139,-0.387 0.135,-0.372 0.135,-0.353L0.135,-0.295Z" style="fill-rule:nonzero;"/>
                </g>
            </g>
        </g>
    </g>
    <g transform="matrix(1,0,0,1,530.37,3.01019)">
        <g transform="matrix(0.137074,0,0,1.04521,560.164,169.189)">
            <g>
                <g>
                    <path d="M950.228,215.564L950.228,292.104C950.228,297.384 917.539,301.672 877.275,301.672L731.368,301.672C691.104,301.672 658.415,297.384 658.415,292.104L658.415,215.564C658.415,210.284 691.104,205.997 731.368,205.997L877.275,205.997C917.539,205.997 950.228,210.284 950.228,215.564Z" style="fill:rgb(188,171,121);"/>
                </g>
            </g>
        </g>
        <g transform="matrix(1,0,0,1,235.273,-36.6799)">
            <g transform="matrix(1,0,0,1,-167.129,8.75785)">
                <g transform="matrix(17.49,0,0,17.49,605.64,482.24)">
                    <path d="M0.235,-0L0.235,-0.052L0.233,-0.052C0.22,-0.033 0.206,-0.019 0.193,-0.009C0.179,0.001 0.16,0.006 0.135,0.006C0.123,0.006 0.111,0.004 0.099,0.001C0.086,-0.003 0.074,-0.01 0.063,-0.02C0.052,-0.029 0.043,-0.043 0.036,-0.061C0.029,-0.078 0.025,-0.101 0.025,-0.129C0.025,-0.158 0.027,-0.183 0.032,-0.205C0.037,-0.226 0.045,-0.244 0.058,-0.259C0.07,-0.273 0.086,-0.284 0.107,-0.291C0.128,-0.298 0.154,-0.301 0.186,-0.301L0.197,-0.301C0.201,-0.301 0.205,-0.301 0.208,-0.3C0.211,-0.299 0.215,-0.299 0.22,-0.299C0.225,-0.299 0.23,-0.299 0.235,-0.298L0.235,-0.351C0.235,-0.368 0.231,-0.383 0.224,-0.394C0.217,-0.405 0.203,-0.411 0.184,-0.411C0.171,-0.411 0.159,-0.407 0.148,-0.398C0.136,-0.389 0.129,-0.377 0.126,-0.36L0.027,-0.36C0.03,-0.405 0.045,-0.442 0.073,-0.47C0.086,-0.483 0.102,-0.494 0.121,-0.502C0.14,-0.509 0.161,-0.513 0.184,-0.513C0.205,-0.513 0.225,-0.51 0.244,-0.503C0.263,-0.496 0.279,-0.486 0.293,-0.473C0.306,-0.46 0.317,-0.443 0.325,-0.423C0.333,-0.403 0.337,-0.38 0.337,-0.353L0.337,-0L0.235,-0ZM0.235,-0.218C0.224,-0.22 0.214,-0.221 0.207,-0.221C0.185,-0.221 0.166,-0.216 0.151,-0.206C0.135,-0.195 0.127,-0.176 0.127,-0.149C0.127,-0.13 0.132,-0.114 0.141,-0.102C0.15,-0.09 0.163,-0.084 0.18,-0.084C0.197,-0.084 0.211,-0.09 0.221,-0.101C0.23,-0.112 0.235,-0.128 0.235,-0.149L0.235,-0.218Z" style="fill-rule:nonzero;"/>
                </g>
            </g>
            <g transform="matrix(1,0,0,1,7.65876,-0.106908)">
                <g transform="matrix(55.968,0,0,55.968,415.534,491.21)">
                    <path d="M0.048,-0L0.048,-0.712L0.201,-0.712C0.229,-0.712 0.254,-0.708 0.275,-0.701C0.296,-0.694 0.316,-0.681 0.333,-0.662C0.35,-0.643 0.362,-0.622 0.369,-0.597C0.376,-0.572 0.379,-0.538 0.379,-0.495C0.379,-0.463 0.377,-0.436 0.374,-0.414C0.37,-0.392 0.362,-0.371 0.35,-0.352C0.336,-0.329 0.317,-0.311 0.294,-0.298C0.271,-0.285 0.24,-0.278 0.202,-0.278L0.15,-0.278L0.15,-0L0.048,-0ZM0.15,-0.616L0.15,-0.374L0.199,-0.374C0.22,-0.374 0.236,-0.377 0.247,-0.383C0.258,-0.389 0.267,-0.397 0.272,-0.408C0.277,-0.418 0.281,-0.43 0.282,-0.445C0.283,-0.46 0.283,-0.476 0.283,-0.494C0.283,-0.511 0.283,-0.527 0.282,-0.542C0.281,-0.557 0.278,-0.57 0.273,-0.581C0.268,-0.592 0.26,-0.601 0.249,-0.607C0.238,-0.613 0.223,-0.616 0.203,-0.616L0.15,-0.616Z" style="fill-rule:nonzero;"/>
                </g>
            </g>
        </g>
    </g>
    <g transform="matrix(1,0,0,1,371.507,1.74629)">
        <g transform="matrix(0.137074,0,0,1.04521,560.164,169.189)">
            <g>
                <g>
                    <path d="M950.228,215.564L950.228,292.104C950.228,297.384 917.539,301.672 877.275,301.672L731.368,301.672C691.104,301.672 658.415,297.384 658.415,292.104L658.415,215.564C658.415,210.284 691.104,205.997 731.368,205.997L877.275,205.997C917.539,205.997 950.228,210.284 950.228,215.564Z" style="fill:rgb(188,171,121);"/>
                </g>
            </g>
        </g>
        <g transform="matrix(1,0,0,1,235.273,-36.6799)">
            <g transform="matrix(1,0,0,1,-167.129,8.75785)">
                <g transform="matrix(17.49,0,0,17.49,605.64,482.24)">
                    <path d="M0.235,-0L0.235,-0.052L0.233,-0.052C0.22,-0.033 0.206,-0.019 0.193,-0.009C0.179,0.001 0.16,0.006 0.135,0.006C0.123,0.006 0.111,0.004 0.099,0.001C0.086,-0.003 0.074,-0.01 0.063,-0.02C0.052,-0.029 0.043,-0.043 0.036,-0.061C0.029,-0.078 0.025,-0.101 0.025,-0.129C0.025,-0.158 0.027,-0.183 0.032,-0.205C0.037,-0.226 0.045,-0.244 0.058,-0.259C0.07,-0.273 0.086,-0.284 0.107,-0.291C0.128,-0.298 0.154,-0.301 0.186,-0.301L0.197,-0.301C0.201,-0.301 0.205,-0.301 0.208,-0.3C0.211,-0.299 0.215,-0.299 0.22,-0.299C0.225,-0.299 0.23,-0.299 0.235,-0.298L0.235,-0.351C0.235,-0.368 0.231,-0.383 0.224,-0.394C0.217,-0.405 0.203,-0.411 0.184,-0.411C0.171,-0.411 0.159,-0.407 0.148,-0.398C0.136,-0.389 0.129,-0.377 0.126,-0.36L0.027,-0.36C0.03,-0.405 0.045,-0.442 0.073,-0.47C0.086,-0.483 0.102,-0.494 0.121,-0.502C0.14,-0.509 0.161,-0.513 0.184,-0.513C0.205,-0.513 0.225,-0.51 0.244,-0.503C0.263,-0.496 0.279,-0.486 0.293,-0.473C0.306,-0.46 0.317,-0.443 0.325,-0.423C0.333,-0.403 0.337,-0.38 0.337,-0.353L0.337,-0L0.235,-0ZM0.235,-0.218C0.224,-0.22 0.214,-0.221 0.207,-0.221C0.185,-0.221 0.166,-0.216 0.151,-0.206C0.135,-0.195 0.127,-0.176 0.127,-0.149C0.127,-0.13 0.132,-0.114 0.141,-0.102C0.15,-0.09 0.163,-0.084 0.18,-0.084C0.197,-0.084 0.211,-0.09 0.221,-0.101C0.23,-0.112 0.235,-0.128 0.235,-0.149L0.235,-0.218Z" style="fill-rule:nonzero;"/>
                </g>
            </g>
            <g transform="matrix(1,0,0,1,7.65876,-0.106908)">
                <g transform="matrix(55.968,0,0,55.968,415.534,491.21)">
                    <path d="M0.048,-0L0.048,-0.712L0.201,-0.712C0.229,-0.712 0.254,-0.708 0.275,-0.701C0.296,-0.694 0.316,-0.681 0.333,-0.662C0.35,-0.643 0.362,-0.622 0.369,-0.597C0.376,-0.572 0.379,-0.538 0.379,-0.495C0.379,-0.463 0.377,-0.436 0.374,-0.414C0.37,-0.392 0.362,-0.371 0.35,-0.352C0.336,-0.329 0.317,-0.311 0.294,-0.298C0.271,-0.285 0.24,-0.278 0.202,-0.278L0.15,-0.278L0.15,-0L0.048,-0ZM0.15,-0.616L0.15,-0.374L0.199,-0.374C0.22,-0.374 0.236,-0.377 0.247,-0.383C0.258,-0.389 0.267,-0.397 0.272,-0.408C0.277,-0.418 0.281,-0.43 0.282,-0.445C0.283,-0.46 0.283,-0.476 0.283,-0.494C0.283,-0.511 0.283,-0.527 0.282,-0.542C0.281,-0.557 0.278,-0.57 0.273,-0.581C0.268,-0.592 0.26,-0.601 0.249,-0.607C0.238,-0.613 0.223,-0.616 0.203,-0.616L0.15,-0.616Z" style="fill-rule:nonzero;"/>
                </g>
            </g>
        </g>
    </g>
    <g transform="matrix(1,0,0,1,211.699,1.74629)">
        <g transform="matrix(0.137074,0,0,1.04521,560.164,169.189)">
            <g>
                <g>
                    <path d="M950.228,215.564L950.228,292.104C950.228,297.384 917.539,301.672 877.275,301.672L731.368,301.672C691.104,301.672 658.415,297.384 658.415,292.104L658.415,215.564C658.415,210.284 691.104,205.997 731.368,205.997L877.275,205.997C917.539,205.997 950.228,210.284 950.228,215.564Z" style="fill:rgb(188,171,121);"/>
                </g>
            </g>
        </g>
        <g transform="matrix(1,0,0,1,235.273,-36.6799)">
            <g transform="matrix(1,0,0,1,-167.129,8.75785)">
                <g transform="matrix(17.49,0,0,17.49,605.64,482.24)">
                    <path d="M0.235,-0L0.235,-0.052L0.233,-0.052C0.22,-0.033 0.206,-0.019 0.193,-0.009C0.179,0.001 0.16,0.006 0.135,0.006C0.123,0.006 0.111,0.004 0.099,0.001C0.086,-0.003 0.074,-0.01 0.063,-0.02C0.052,-0.029 0.043,-0.043 0.036,-0.061C0.029,-0.078 0.025,-0.101 0.025,-0.129C0.025,-0.158 0.027,-0.183 0.032,-0.205C0.037,-0.226 0.045,-0.244 0.058,-0.259C0.07,-0.273 0.086,-0.284 0.107,-0.291C0.128,-0.298 0.154,-0.301 0.186,-0.301L0.197,-0.301C0.201,-0.301 0.205,-0.301 0.208,-0.3C0.211,-0.299 0.215,-0.299 0.22,-0.299C0.225,-0.299 0.23,-0.299 0.235,-0.298L0.235,-0.351C0.235,-0.368 0.231,-0.383 0.224,-0.394C0.217,-0.405 0.203,-0.411 0.184,-0.411C0.171,-0.411 0.159,-0.407 0.148,-0.398C0.136,-0.389 0.129,-0.377 0.126,-0.36L0.027,-0.36C0.03,-0.405 0.045,-0.442 0.073,-0.47C0.086,-0.483 0.102,-0.494 0.121,-0.502C0.14,-0.509 0.161,-0.513 0.184,-0.513C0.205,-0.513 0.225,-0.51 0.244,-0.503C0.263,-0.496 0.279,-0.486 0.293,-0.473C0.306,-0.46 0.317,-0.443 0.325,-0.423C0.333,-0.403 0.337,-0.38 0.337,-0.353L0.337,-0L0.235,-0ZM0.235,-0.218C0.224,-0.22 0.214,-0.221 0.207,-0.221C0.185,-0.221 0.166,-0.216 0.151,-0.206C0.135,-0.195 0.127,-0.176 0.127,-0.149C0.127,-0.13 0.132,-0.114 0.141,-0.102C0.15,-0.09 0.163,-0.084 0.18,-0.084C0.197,-0.084 0.211,-0.09 0.221,-0.101C0.23,-0.112 0.235,-0.128 0.235,-0.149L0.235,-0.218Z" style="fill-rule:nonzero;"/>
                </g>
            </g>
            <g transform="matrix(1,0,0,1,7.65876,-0.106908)">
                <g transform="matrix(55.968,0,0,55.968,415.534,491.21)">
                    <path d="M0.048,-0L0.048,-0.712L0.201,-0.712C0.229,-0.712 0.254,-0.708 0.275,-0.701C0.296,-0.694 0.316,-0.681 0.333,-0.662C0.35,-0.643 0.362,-0.622 0.369,-0.597C0.376,-0.572 0.379,-0.538 0.379,-0.495C0.379,-0.463 0.377,-0.436 0.374,-0.414C0.37,-0.392 0.362,-0.371 0.35,-0.352C0.336,-0.329 0.317,-0.311 0.294,-0.298C0.271,-0.285 0.24,-0.278 0.202,-0.278L0.15,-0.278L0.15,-0L0.048,-0ZM0.15,-0.616L0.15,-0.374L0.199,-0.374C0.22,-0.374 0.236,-0.377 0.247,-0.383C0.258,-0.389 0.267,-0.397 0.272,-0.408C0.277,-0.418 0.281,-0.43 0.282,-0.445C0.283,-0.46 0.283,-0.476 0.283,-0.494C0.283,-0.511 0.283,-0.527 0.282,-0.542C0.281,-0.557 0.278,-0.57 0.273,-0.581C0.268,-0.592 0.26,-0.601 0.249,-0.607C0.238,-0.613 0.223,-0.616 0.203,-0.616L0.15,-0.616Z" style="fill-rule:nonzero;"/>
                </g>
            </g>
        </g>
    </g>
    <g transform="matrix(1,0,0,1,-1.37916,1.74629)">
        <g transform="matrix(0.137074,0,0,1.04521,560.164,169.189)">
            <g>
                <g>
                    <path d="M950.228,215.564L950.228,292.104C950.228,297.384 917.539,301.672 877.275,301.672L731.368,301.672C691.104,301.672 658.415,297.384 658.415,292.104L658.415,215.564C658.415,210.284 691.104,205.997 731.368,205.997L877.275,205.997C917.539,205.997 950.228,210.284 950.228,215.564Z" style="fill:rgb(188,171,121);"/>
                </g>
            </g>
        </g>
        <g transform="matrix(1,0,0,1,235.273,-36.6799)">
            <g transform="matrix(1,0,0,1,-167.129,8.75785)">
                <g transform="matrix(17.49,0,0,17.49,605.64,482.24)">
                    <path d="M0.235,-0L0.235,-0.052L0.233,-0.052C0.22,-0.033 0.206,-0.019 0.193,-0.009C0.179,0.001 0.16,0.006 0.135,0.006C0.123,0.006 0.111,0.004 0.099,0.001C0.086,-0.003 0.074,-0.01 0.063,-0.02C0.052,-0.029 0.043,-0.043 0.036,-0.061C0.029,-0.078 0.025,-0.101 0.025,-0.129C0.025,-0.158 0.027,-0.183 0.032,-0.205C0.037,-0.226 0.045,-0.244 0.058,-0.259C0.07,-0.273 0.086,-0.284 0.107,-0.291C0.128,-0.298 0.154,-0.301 0.186,-0.301L0.197,-0.301C0.201,-0.301 0.205,-0.301 0.208,-0.3C0.211,-0.299 0.215,-0.299 0.22,-0.299C0.225,-0.299 0.23,-0.299 0.235,-0.298L0.235,-0.351C0.235,-0.368 0.231,-0.383 0.224,-0.394C0.217,-0.405 0.203,-0.411 0.184,-0.411C0.171,-0.411 0.159,-0.407 0.148,-0.398C0.136,-0.389 0.129,-0.377 0.126,-0.36L0.027,-0.36C0.03,-0.405 0.045,-0.442 0.073,-0.47C0.086,-0.483 0.102,-0.494 0.121,-0.502C0.14,-0.509 0.161,-0.513 0.184,-0.513C0.205,-0.513 0.225,-0.51 0.244,-0.503C0.263,-0.496 0.279,-0.486 0.293,-0.473C0.306,-0.46 0.317,-0.443 0.325,-0.423C0.333,-0.403 0.337,-0.38 0.337,-0.353L0.337,-0L0.235,-0ZM0.235,-0.218C0.224,-0.22 0.214,-0.221 0.207,-0.221C0.185,-0.221 0.166,-0.216 0.151,-0.206C0.135,-0.195 0.127,-0.176 0.127,-0.149C0.127,-0.13 0.132,-0.114 0.141,-0.102C0.15,-0.09 0.163,-0.084 0.18,-0.084C0.197,-0.084 0.211,-0.09 0.221,-0.101C0.23,-0.112 0.235,-0.128 0.235,-0.149L0.235,-0.218Z" style="fill-rule:nonzero;"/>
                </g>
            </g>
            <g transform="matrix(1,0,0,1,7.65876,-0.106908)">
                <g transform="matrix(55.968,0,0,55.968,415.534,491.21)">
                    <path d="M0.048,-0L0.048,-0.712L0.201,-0.712C0.229,-0.712 0.254,-0.708 0.275,-0.701C0.296,-0.694 0.316,-0.681 0.333,-0.662C0.35,-0.643 0.362,-0.622 0.369,-0.597C0.376,-0.572 0.379,-0.538 0.379,-0.495C0.379,-0.463 0.377,-0.436 0.374,-0.414C0.37,-0.392 0.362,-0.371 0.35,-0.352C0.336,-0.329 0.317,-0.311 0.294,-0.298C0.271,-0.285 0.24,-0.278 0.202,-0.278L0.15,-0.278L0.15,-0L0.048,-0ZM0.15,-0.616L0.15,-0.374L0.199,-0.374C0.22,-0.374 0.236,-0.377 0.247,-0.383C0.258,-0.389 0.267,-0.397 0.272,-0.408C0.277,-0.418 0.281,-0.43 0.282,-0.445C0.283,-0.46 0.283,-0.476 0.283,-0.494C0.283,-0.511 0.283,-0.527 0.282,-0.542C0.281,-0.557 0.278,-0.57 0.273,-0.581C0.268,-0.592 0.26,-0.601 0.249,-0.607C0.238,-0.613 0.223,-0.616 0.203,-0.616L0.15,-0.616Z" style="fill-rule:nonzero;"/>
                </g>
            </g>
        </g>
    </g>
    <g transform="matrix(1,0,0,1,-214.457,1.74629)">
        <g transform="matrix(0.137074,0,0,1.04521,560.164,169.189)">
            <g>
                <g>
                    <path d="M950.228,215.564L950.228,292.104C950.228,297.384 917.539,301.672 877.275,301.672L731.368,301.672C691.104,301.672 658.415,297.384 658.415,292.104L658.415,215.564C658.415,210.284 691.104,205.997 731.368,205.997L877.275,205.997C917.539,205.997 950.228,210.284 950.228,215.564Z" style="fill:rgb(188,171,121);"/>
                </g>
            </g>
        </g>
        <g transform="matrix(1,0,0,1,235.273,-36.6799)">
            <g transform="matrix(1,0,0,1,-167.129,8.75785)">
                <g transform="matrix(17.49,0,0,17.49,605.64,482.24)">
                    <path d="M0.235,-0L0.235,-0.052L0.233,-0.052C0.22,-0.033 0.206,-0.019 0.193,-0.009C0.179,0.001 0.16,0.006 0.135,0.006C0.123,0.006 0.111,0.004 0.099,0.001C0.086,-0.003 0.074,-0.01 0.063,-0.02C0.052,-0.029 0.043,-0.043 0.036,-0.061C0.029,-0.078 0.025,-0.101 0.025,-0.129C0.025,-0.158 0.027,-0.183 0.032,-0.205C0.037,-0.226 0.045,-0.244 0.058,-0.259C0.07,-0.273 0.086,-0.284 0.107,-0.291C0.128,-0.298 0.154,-0.301 0.186,-0.301L0.197,-0.301C0.201,-0.301 0.205,-0.301 0.208,-0.3C0.211,-0.299 0.215,-0.299 0.22,-0.299C0.225,-0.299 0.23,-0.299 0.235,-0.298L0.235,-0.351C0.235,-0.368 0.231,-0.383 0.224,-0.394C0.217,-0.405 0.203,-0.411 0.184,-0.411C0.171,-0.411 0.159,-0.407 0.148,-0.398C0.136,-0.389 0.129,-0.377 0.126,-0.36L0.027,-0.36C0.03,-0.405 0.045,-0.442 0.073,-0.47C0.086,-0.483 0.102,-0.494 0.121,-0.502C0.14,-0.509 0.161,-0.513 0.184,-0.513C0.205,-0.513 0.225,-0.51 0.244,-0.503C0.263,-0.496 0.279,-0.486 0.293,-0.473C0.306,-0.46 0.317,-0.443 0.325,-0.423C0.333,-0.403 0.337,-0.38 0.337,-0.353L0.337,-0L0.235,-0ZM0.235,-0.218C0.224,-0.22 0.214,-0.221 0.207,-0.221C0.185,-0.221 0.166,-0.216 0.151,-0.206C0.135,-0.195 0.127,-0.176 0.127,-0.149C0.127,-0.13 0.132,-0.114 0.141,-0.102C0.15,-0.09 0.163,-0.084 0.18,-0.084C0.197,-0.084 0.211,-0.09 0.221,-0.101C0.23,-0.112 0.235,-0.128 0.235,-0.149L0.235,-0.218Z" style="fill-rule:nonzero;"/>
                </g>
            </g>
            <g transform="matrix(1,0,0,1,7.65876,-0.106908)">
                <g transform="matrix(55.968,0,0,55.968,415.534,491.21)">
                    <path d="M0.048,-0L0.048,-0.712L0.201,-0.712C0.229,-0.712 0.254,-0.708 0.275,-0.701C0.296,-0.694 0.316,-0.681 0.333,-0.662C0.35,-0.643 0.362,-0.622 0.369,-0.597C0.376,-0.572 0.379,-0.538 0.379,-0.495C0.379,-0.463 0.377,-0.436 0.374,-0.414C0.37,-0.392 0.362,-0.371 0.35,-0.352C0.336,-0.329 0.317,-0.311 0.294,-0.298C0.271,-0.285 0.24,-0.278 0.202,-0.278L0.15,-0.278L0.15,-0L0.048,-0ZM0.15,-0.616L0.15,-0.374L0.199,-0.374C0.22,-0.374 0.236,-0.377 0.247,-0.383C0.258,-0.389 0.267,-0.397 0.272,-0.408C0.277,-0.418 0.281,-0.43 0.282,-0.445C0.283,-0.46 0.283,-0.476 0.283,-0.494C0.283,-0.511 0.283,-0.527 0.282,-0.542C0.281,-0.557 0.278,-0.57 0.273,-0.581C0.268,-0.592 0.26,-0.601 0.249,-0.607C0.238,-0.613 0.223,-0.616 0.203,-0.616L0.15,-0.616Z" style="fill-rule:nonzero;"/>
                </g>
            </g>
        </g>
    </g>
    <g transform="matrix(1,0,0,1,528.799,16.8624)">
        <g transform="matrix(0.137074,0,0,1.04521,615.949,280.321)">
            <g>
                <path d="M950.228,215.564L950.228,292.104C950.228,297.384 917.539,301.672 877.275,301.672L731.368,301.672C691.104,301.672 658.415,297.384 658.415,292.104L658.415,215.564C658.415,210.284 691.104,205.997 731.368,205.997L877.275,205.997C917.539,205.997 950.228,210.284 950.228,215.564Z" style="fill:rgb(247,219,167);"/>
            </g>
        </g>
        <g transform="matrix(1,0,0,1,309.157,-34.1274)">
            <g transform="matrix(1,0,0,1,5.4219,-0.106908)">
                <g transform="matrix(55.968,0,0,55.968,400.428,599.79)">
                    <path d="M0.048,-0L0.048,-0.712L0.15,-0.712L0.15,-0.102L0.352,-0.102L0.352,-0L0.048,-0Z" style="fill-rule:nonzero;"/>
                </g>
            </g>
            <g transform="matrix(1,0,0,1,-151.38,-71.9594)">
                <g transform="matrix(17.49,0,0,17.49,571.036,660.69)">
                    <path d="M0.337,-0.215L0.135,-0.215L0.135,-0.146C0.135,-0.13 0.139,-0.118 0.149,-0.109C0.158,-0.1 0.17,-0.096 0.185,-0.096C0.204,-0.096 0.217,-0.102 0.224,-0.113C0.23,-0.124 0.234,-0.136 0.235,-0.147L0.337,-0.147C0.337,-0.102 0.323,-0.066 0.296,-0.039C0.283,-0.025 0.267,-0.014 0.248,-0.006C0.229,0.002 0.208,0.006 0.185,0.006C0.153,0.006 0.126,-0.001 0.104,-0.014C0.081,-0.027 0.064,-0.045 0.052,-0.067C0.045,-0.08 0.04,-0.096 0.037,-0.113C0.034,-0.13 0.033,-0.149 0.033,-0.17L0.033,-0.337C0.033,-0.358 0.034,-0.377 0.037,-0.394C0.04,-0.411 0.045,-0.427 0.052,-0.44C0.064,-0.462 0.081,-0.48 0.104,-0.493C0.126,-0.506 0.153,-0.513 0.185,-0.513C0.208,-0.513 0.23,-0.509 0.249,-0.501C0.268,-0.493 0.284,-0.482 0.297,-0.468C0.324,-0.438 0.337,-0.4 0.337,-0.355L0.337,-0.215ZM0.135,-0.295L0.235,-0.295L0.235,-0.353C0.235,-0.372 0.231,-0.387 0.222,-0.397C0.213,-0.406 0.2,-0.411 0.185,-0.411C0.17,-0.411 0.158,-0.406 0.149,-0.397C0.139,-0.387 0.135,-0.372 0.135,-0.353L0.135,-0.295Z" style="fill-rule:nonzero;"/>
                </g>
            </g>
        </g>
    </g>
    <g transform="matrix(1,0,0,1,368.991,16.8624)">
        <g transform="matrix(0.137074,0,0,1.04521,615.949,280.321)">
            <g>
                <path d="M950.228,215.564L950.228,292.104C950.228,297.384 917.539,301.672 877.275,301.672L731.368,301.672C691.104,301.672 658.415,297.384 658.415,292.104L658.415,215.564C658.415,210.284 691.104,205.997 731.368,205.997L877.275,205.997C917.539,205.997 950.228,210.284 950.228,215.564Z" style="fill:rgb(247,219,167);"/>
            </g>
        </g>
        <g transform="matrix(1,0,0,1,309.157,-34.1274)">
            <g transform="matrix(1,0,0,1,5.4219,-0.106908)">
                <g transform="matrix(55.968,0,0,55.968,400.428,599.79)">
                    <path d="M0.048,-0L0.048,-0.712L0.15,-0.712L0.15,-0.102L0.352,-0.102L0.352,-0L0.048,-0Z" style="fill-rule:nonzero;"/>
                </g>
            </g>
            <g transform="matrix(1,0,0,1,-151.38,-71.9594)">
                <g transform="matrix(17.49,0,0,17.49,571.036,660.69)">
                    <path d="M0.337,-0.215L0.135,-0.215L0.135,-0.146C0.135,-0.13 0.139,-0.118 0.149,-0.109C0.158,-0.1 0.17,-0.096 0.185,-0.096C0.204,-0.096 0.217,-0.102 0.224,-0.113C0.23,-0.124 0.234,-0.136 0.235,-0.147L0.337,-0.147C0.337,-0.102 0.323,-0.066 0.296,-0.039C0.283,-0.025 0.267,-0.014 0.248,-0.006C0.229,0.002 0.208,0.006 0.185,0.006C0.153,0.006 0.126,-0.001 0.104,-0.014C0.081,-0.027 0.064,-0.045 0.052,-0.067C0.045,-0.08 0.04,-0.096 0.037,-0.113C0.034,-0.13 0.033,-0.149 0.033,-0.17L0.033,-0.337C0.033,-0.358 0.034,-0.377 0.037,-0.394C0.04,-0.411 0.045,-0.427 0.052,-0.44C0.064,-0.462 0.081,-0.48 0.104,-0.493C0.126,-0.506 0.153,-0.513 0.185,-0.513C0.208,-0.513 0.23,-0.509 0.249,-0.501C0.268,-0.493 0.284,-0.482 0.297,-0.468C0.324,-0.438 0.337,-0.4 0.337,-0.355L0.337,-0.215ZM0.135,-0.295L0.235,-0.295L0.235,-0.353C0.235,-0.372 0.231,-0.387 0.222,-0.397C0.213,-0.406 0.2,-0.411 0.185,-0.411C0.17,-0.411 0.158,-0.406 0.149,-0.397C0.139,-0.387 0.135,-0.372 0.135,-0.353L0.135,-0.295Z" style="fill-rule:nonzero;"/>
                </g>
            </g>
        </g>
    </g>
    <g transform="matrix(1,0,0,1,209.183,16.8624)">
        <g transform="matrix(0.137074,0,0,1.04521,615.949,280.321)">
            <g>
                <path d="M950.228,215.564L950.228,292.104C950.228,297.384 917.539,301.672 877.275,301.672L731.368,301.672C691.104,301.672 658.415,297.384 658.415,292.104L658.415,215.564C658.415,210.284 691.104,205.997 731.368,205.997L877.275,205.997C917.539,205.997 950.228,210.284 950.228,215.564Z" style="fill:rgb(247,219,167);"/>
            </g>
        </g>
        <g transform="matrix(1,0,0,1,309.157,-34.1274)">
            <g transform="matrix(1,0,0,1,5.4219,-0.106908)">
                <g transform="matrix(55.968,0,0,55.968,400.428,599.79)">
                    <path d="M0.048,-0L0.048,-0.712L0.15,-0.712L0.15,-0.102L0.352,-0.102L0.352,-0L0.048,-0Z" style="fill-rule:nonzero;"/>
                </g>
            </g>
            <g transform="matrix(1,0,0,1,-151.38,-71.9594)">
                <g transform="matrix(17.49,0,0,17.49,571.036,660.69)">
                    <path d="M0.337,-0.215L0.135,-0.215L0.135,-0.146C0.135,-0.13 0.139,-0.118 0.149,-0.109C0.158,-0.1 0.17,-0.096 0.185,-0.096C0.204,-0.096 0.217,-0.102 0.224,-0.113C0.23,-0.124 0.234,-0.136 0.235,-0.147L0.337,-0.147C0.337,-0.102 0.323,-0.066 0.296,-0.039C0.283,-0.025 0.267,-0.014 0.248,-0.006C0.229,0.002 0.208,0.006 0.185,0.006C0.153,0.006 0.126,-0.001 0.104,-0.014C0.081,-0.027 0.064,-0.045 0.052,-0.067C0.045,-0.08 0.04,-0.096 0.037,-0.113C0.034,-0.13 0.033,-0.149 0.033,-0.17L0.033,-0.337C0.033,-0.358 0.034,-0.377 0.037,-0.394C0.04,-0.411 0.045,-0.427 0.052,-0.44C0.064,-0.462 0.081,-0.48 0.104,-0.493C0.126,-0.506 0.153,-0.513 0.185,-0.513C0.208,-0.513 0.23,-0.509 0.249,-0.501C0.268,-0.493 0.284,-0.482 0.297,-0.468C0.324,-0.438 0.337,-0.4 0.337,-0.355L0.337,-0.215ZM0.135,-0.295L0.235,-0.295L0.235,-0.353C0.235,-0.372 0.231,-0.387 0.222,-0.397C0.213,-0.406 0.2,-0.411 0.185,-0.411C0.17,-0.411 0.158,-0.406 0.149,-0.397C0.139,-0.387 0.135,-0.372 0.135,-0.353L0.135,-0.295Z" style="fill-rule:nonzero;"/>
                </g>
            </g>
        </g>
    </g>
    <g transform="matrix(1,0,0,1,-3.89497,16.8624)">
        <g transform="matrix(0.137074,0,0,1.04521,615.949,280.321)">
            <g>
                <path d="M950.228,215.564L950.228,292.104C950.228,297.384 917.539,301.672 877.275,301.672L731.368,301.672C691.104,301.672 658.415,297.384 658.415,292.104L658.415,215.564C658.415,210.284 691.104,205.997 731.368,205.997L877.275,205.997C917.539,205.997 950.228,210.284 950.228,215.564Z" style="fill:rgb(247,219,167);"/>
            </g>
        </g>
        <g transform="matrix(1,0,0,1,309.157,-34.1274)">
            <g transform="matrix(1,0,0,1,5.4219,-0.106908)">
                <g transform="matrix(55.968,0,0,55.968,400.428,599.79)">
                    <path d="M0.048,-0L0.048,-0.712L0.15,-0.712L0.15,-0.102L0.352,-0.102L0.352,-0L0.048,-0Z" style="fill-rule:nonzero;"/>
                </g>
            </g>
            <g transform="matrix(1,0,0,1,-151.38,-71.9594)">
                <g transform="matrix(17.49,0,0,17.49,571.036,660.69)">
                    <path d="M0.337,-0.215L0.135,-0.215L0.135,-0.146C0.135,-0.13 0.139,-0.118 0.149,-0.109C0.158,-0.1 0.17,-0.096 0.185,-0.096C0.204,-0.096 0.217,-0.102 0.224,-0.113C0.23,-0.124 0.234,-0.136 0.235,-0.147L0.337,-0.147C0.337,-0.102 0.323,-0.066 0.296,-0.039C0.283,-0.025 0.267,-0.014 0.248,-0.006C0.229,0.002 0.208,0.006 0.185,0.006C0.153,0.006 0.126,-0.001 0.104,-0.014C0.081,-0.027 0.064,-0.045 0.052,-0.067C0.045,-0.08 0.04,-0.096 0.037,-0.113C0.034,-0.13 0.033,-0.149 0.033,-0.17L0.033,-0.337C0.033,-0.358 0.034,-0.377 0.037,-0.394C0.04,-0.411 0.045,-0.427 0.052,-0.44C0.064,-0.462 0.081,-0.48 0.104,-0.493C0.126,-0.506 0.153,-0.513 0.185,-0.513C0.208,-0.513 0.23,-0.509 0.249,-0.501C0.268,-0.493 0.284,-0.482 0.297,-0.468C0.324,-0.438 0.337,-0.4 0.337,-0.355L0.337,-0.215ZM0.135,-0.295L0.235,-0.295L0.235,-0.353C0.235,-0.372 0.231,-0.387 0.222,-0.397C0.213,-0.406 0.2,-0.411 0.185,-0.411C0.17,-0.411 0.158,-0.406 0.149,-0.397C0.139,-0.387 0.135,-0.372 0.135,-0.353L0.135,-0.295Z" style="fill-rule:nonzero;"/>
                </g>
            </g>
        </g>
    </g>
    <g transform="matrix(1,0,0,1,-216.973,16.8624)">
        <g transform="matrix(0.137074,0,0,1.04521,615.949,280.321)">
            <g>
                <path d="M950.228,215.564L950.228,292.104C950.228,297.384 917.539,301.672 877.275,301.672L731.368,301.672C691.104,301.672 658.415,297.384 658.415,292.104L658.415,215.564C658.415,210.284 691.104,205.997 731.368,205.997L877.275,205.997C917.539,205.997 950.228,210.284 950.228,215.564Z" style="fill:rgb(247,219,167);"/>
            </g>
        </g>
        <g transform="matrix(1,0,0,1,309.157,-34.1274)">
            <g transform="matrix(1,0,0,1,5.4219,-0.106908)">
                <g transform="matrix(55.968,0,0,55.968,400.428,599.79)">
                    <path d="M0.048,-0L0.048,-0.712L0.15,-0.712L0.15,-0.102L0.352,-0.102L0.352,-0L0.048,-0Z" style="fill-rule:nonzero;"/>
                </g>
            </g>
            <g transform="matrix(1,0,0,1,-151.38,-71.9594)">
                <g transform="matrix(17.49,0,0,17.49,571.036,660.69)">
                    <path d="M0.337,-0.215L0.135,-0.215L0.135,-0.146C0.135,-0.13 0.139,-0.118 0.149,-0.109C0.158,-0.1 0.17,-0.096 0.185,-0.096C0.204,-0.096 0.217,-0.102 0.224,-0.113C0.23,-0.124 0.234,-0.136 0.235,-0.147L0.337,-0.147C0.337,-0.102 0.323,-0.066 0.296,-0.039C0.283,-0.025 0.267,-0.014 0.248,-0.006C0.229,0.002 0.208,0.006 0.185,0.006C0.153,0.006 0.126,-0.001 0.104,-0.014C0.081,-0.027 0.064,-0.045 0.052,-0.067C0.045,-0.08 0.04,-0.096 0.037,-0.113C0.034,-0.13 0.033,-0.149 0.033,-0.17L0.033,-0.337C0.033,-0.358 0.034,-0.377 0.037,-0.394C0.04,-0.411 0.045,-0.427 0.052,-0.44C0.064,-0.462 0.081,-0.48 0.104,-0.493C0.126,-0.506 0.153,-0.513 0.185,-0.513C0.208,-0.513 0.23,-0.509 0.249,-0.501C0.268,-0.493 0.284,-0.482 0.297,-0.468C0.324,-0.438 0.337,-0.4 0.337,-0.355L0.337,-0.215ZM0.135,-0.295L0.235,-0.295L0.235,-0.353C0.235,-0.372 0.231,-0.387 0.222,-0.397C0.213,-0.406 0.2,-0.411 0.185,-0.411C0.17,-0.411 0.158,-0.406 0.149,-0.397C0.139,-0.387 0.135,-0.372 0.135,-0.353L0.135,-0.295Z" style="fill-rule:nonzero;"/>
                </g>
            </g>
        </g>
    </g>
</svg>
