<?xml version="1.0" encoding="UTF-8" standalone="no"?><!DOCTYPE svg PUBLIC "-//W3C//DTD SVG 1.1//EN" "http://www.w3.org/Graphics/SVG/1.1/DTD/svg11.dtd"><svg width="100%" height="100%" viewBox="0 0 1280 800" version="1.1" xmlns="http://www.w3.org/2000/svg" xmlns:xlink="http://www.w3.org/1999/xlink" xml:space="preserve" xmlns:serif="http://www.serif.com/" style="fill-rule:evenodd;clip-rule:evenodd;stroke-linecap:round;stroke-linejoin:round;stroke-miterlimit:1.5;"><g><rect x="0" y="0" width="106.047" height="35.469" style="fill:#b8b8b8;stroke:#000;stroke-width:1px;"/><rect x="106.047" y="0" width="106.047" height="35.469" style="fill:#848484;stroke:#954646;stroke-width:1px;"/><rect x="212.094" y="0" width="195.271" height="35.469" style="fill:#8c5454;stroke:#000;stroke-width:1px;"/><rect x="407.365" y="0" width="168.563" height="35.469" style="fill:#b47ca3;stroke:#000;stroke-width:1px;"/><rect x="575.928" y="0" width="106.047" height="35.469" style="fill:#c5cc8e;stroke:#000;stroke-width:1px;"/><rect x="788.021" y="0" width="106.047" height="35.469" style="fill:#5275ad;stroke:#000;stroke-width:1px;"/><rect x="894.068" y="0" width="177.947" height="35.469" style="fill:#957777;stroke:#000;stroke-width:1px;"/><rect x="1072.02" y="0" width="48.786" height="35.469" style="fill:#a8d791;stroke:#000;stroke-width:1px;"/><rect x="1120.8" y="0" width="159.199" height="35.469" style="fill:#c9d0ce;stroke:#000;stroke-width:1px;"/><rect x="681.975" y="0" width="106.047" height="35.469" style="fill:#b8a767;stroke:#000;stroke-width:1px;"/></g><g><rect x="1060.97" y="35.469" width="105.73" height="35.469" style="fill:#b8b8b8;stroke:#000;stroke-width:1px;"/><rect x="955.241" y="35.469" width="105.73" height="35.469" style="fill:#848484;stroke:#954646;stroke-width:1px;"/><rect x="760.552" y="35.469" width="194.688" height="35.469" style="fill:#8c5454;stroke:#000;stroke-width:1px;"/><rect x="1166.7" y="35.469" width="113.299" height="35.469" style="fill:#8c5454;stroke:#000;stroke-width:1px;"/><rect x="592.493" y="35.469" width="168.06" height="35.469" style="fill:#b47ca3;stroke:#000;stroke-width:1px;"/><rect x="486.763" y="35.469" width="105.73" height="35.469" style="fill:#c5cc8e;stroke:#000;stroke-width:1px;"/><rect x="275.302" y="35.469" width="105.73" height="35.469" style="fill:#5275ad;stroke:#000;stroke-width:1px;"/><rect x="97.887" y="35.469" width="177.415" height="35.469" style="fill:#957777;stroke:#000;stroke-width:1px;"/><rect x="49.246" y="35.469" width="48.641" height="35.469" style="fill:#a8d791;stroke:#000;stroke-width:1px;"/><rect x="0" y="35.469" width="49.246" height="35.469" style="fill:#c9d0ce;stroke:#000;stroke-width:1px;"/><rect x="381.032" y="35.469" width="105.73" height="35.469" style="fill:#b8a767;stroke:#000;stroke-width:1px;"/></g><g><rect x="0" y="70.938" width="133.987" height="35.469" style="fill:#b8b8b8;stroke:#000;stroke-width:1px;"/><rect x="133.987" y="70.938" width="106.047" height="35.469" style="fill:#848484;stroke:#954646;stroke-width:1px;"/><rect x="240.034" y="70.938" width="195.271" height="35.469" style="fill:#8c5454;stroke:#000;stroke-width:1px;"/><rect x="435.305" y="70.938" width="168.563" height="35.469" style="fill:#b47ca3;stroke:#000;stroke-width:1px;"/><rect x="603.868" y="70.938" width="106.047" height="35.469" style="fill:#c5cc8e;stroke:#000;stroke-width:1px;"/><rect x="815.962" y="70.938" width="106.047" height="35.469" style="fill:#5275ad;stroke:#000;stroke-width:1px;"/><rect x="922.009" y="70.938" width="177.947" height="35.469" style="fill:#957777;stroke:#000;stroke-width:1px;"/><rect x="1099.96" y="70.938" width="48.786" height="35.469" style="fill:#a8d791;stroke:#000;stroke-width:1px;"/><rect x="1148.74" y="70.938" width="131.258" height="35.469" style="fill:#c9d0ce;stroke:#000;stroke-width:1px;"/><rect x="709.915" y="70.938" width="106.047" height="35.469" style="fill:#b8a767;stroke:#000;stroke-width:1px;"/></g><g><rect x="1228.4" y="106.407" width="51.595" height="35.469" style="fill:#b8b8b8;stroke:#000;stroke-width:1px;"/><rect x="1122.36" y="106.407" width="106.047" height="35.469" style="fill:#848484;stroke:#954646;stroke-width:1px;"/><rect x="927.087" y="106.407" width="195.271" height="35.469" style="fill:#8c5454;stroke:#000;stroke-width:1px;"/><rect x="758.525" y="106.407" width="168.563" height="35.469" style="fill:#b47ca3;stroke:#000;stroke-width:1px;"/><rect x="652.478" y="106.407" width="106.047" height="35.469" style="fill:#c5cc8e;stroke:#000;stroke-width:1px;"/><rect x="440.384" y="106.407" width="106.047" height="35.469" style="fill:#5275ad;stroke:#000;stroke-width:1px;"/><rect x="-0" y="106.407" width="53.023" height="35.469" style="fill:#5275ad;stroke:#000;stroke-width:1px;"/><rect x="262.437" y="106.407" width="177.947" height="35.469" style="fill:#957777;stroke:#000;stroke-width:1px;"/><rect x="213.651" y="106.407" width="48.786" height="35.469" style="fill:#a8d791;stroke:#000;stroke-width:1px;"/><rect x="54.452" y="106.407" width="159.199" height="35.469" style="fill:#c9d0ce;stroke:#000;stroke-width:1px;"/><rect x="546.431" y="106.407" width="106.047" height="35.469" style="fill:#b8a767;stroke:#000;stroke-width:1px;"/></g><g><rect x="0" y="141.876" width="84.326" height="35.469" style="fill:#b8b8b8;stroke:#000;stroke-width:1px;"/><rect x="84.326" y="141.876" width="106.047" height="35.469" style="fill:#848484;stroke:#954646;stroke-width:1px;"/><rect x="190.373" y="141.876" width="195.271" height="35.469" style="fill:#8c5454;stroke:#000;stroke-width:1px;"/><rect x="385.644" y="141.876" width="168.563" height="35.469" style="fill:#b47ca3;stroke:#000;stroke-width:1px;"/><rect x="554.207" y="141.876" width="106.047" height="35.469" style="fill:#c5cc8e;stroke:#000;stroke-width:1px;"/><rect x="766.301" y="141.876" width="106.047" height="35.469" style="fill:#5275ad;stroke:#000;stroke-width:1px;"/><rect x="872.348" y="141.876" width="177.947" height="35.469" style="fill:#957777;stroke:#000;stroke-width:1px;"/><rect x="1050.29" y="141.876" width="48.786" height="35.469" style="fill:#a8d791;stroke:#000;stroke-width:1px;"/><rect x="1258.28" y="141.876" width="21.721" height="35.469" style="fill:#a8d791;stroke:#000;stroke-width:1px;"/><rect x="1099.08" y="141.876" width="159.199" height="35.469" style="fill:#c9d0ce;stroke:#000;stroke-width:1px;"/><rect x="660.254" y="141.876" width="106.047" height="35.469" style="fill:#b8a767;stroke:#000;stroke-width:1px;"/></g><g><rect x="1176.22" y="177.345" width="103.781" height="35.469" style="fill:#b8b8b8;stroke:#000;stroke-width:1px;"/><rect x="1072.44" y="177.345" width="103.781" height="35.469" style="fill:#848484;stroke:#954646;stroke-width:1px;"/><rect x="881.337" y="177.345" width="191.1" height="35.469" style="fill:#8c5454;stroke:#000;stroke-width:1px;"/><rect x="716.375" y="177.345" width="164.962" height="35.469" style="fill:#b47ca3;stroke:#000;stroke-width:1px;"/><rect x="612.594" y="177.345" width="103.781" height="35.469" style="fill:#c5cc8e;stroke:#000;stroke-width:1px;"/><rect x="405.031" y="177.345" width="103.781" height="35.469" style="fill:#5275ad;stroke:#000;stroke-width:1px;"/><rect x="230.886" y="177.345" width="174.145" height="35.469" style="fill:#957777;stroke:#000;stroke-width:1px;"/><rect x="183.142" y="177.345" width="47.744" height="35.469" style="fill:#a8d791;stroke:#000;stroke-width:1px;"/><rect x="27.344" y="177.345" width="155.798" height="35.469" style="fill:#c9d0ce;stroke:#000;stroke-width:1px;"/><rect x="508.812" y="177.345" width="103.781" height="35.469" style="fill:#b8a767;stroke:#000;stroke-width:1px;"/><rect x="-0" y="177.345" width="27.344" height="35.469" style="fill:#b8a767;stroke:#000;stroke-width:1px;"/></g><g><rect x="-0" y="212.813" width="87.27" height="35.469" style="fill:#848484;stroke:#954646;stroke-width:1px;"/><rect x="87.27" y="212.813" width="195.841" height="35.469" style="fill:#8c5454;stroke:#000;stroke-width:1px;"/><rect x="283.112" y="212.813" width="169.055" height="35.469" style="fill:#b47ca3;stroke:#000;stroke-width:1px;"/><rect x="452.167" y="212.813" width="106.356" height="35.469" style="fill:#c5cc8e;stroke:#000;stroke-width:1px;"/><rect x="664.88" y="212.813" width="106.356" height="35.469" style="fill:#5275ad;stroke:#000;stroke-width:1px;"/><rect x="1151.92" y="212.813" width="128.077" height="35.469" style="fill:#5275ad;stroke:#000;stroke-width:1px;"/><rect x="771.236" y="212.813" width="178.466" height="35.469" style="fill:#957777;stroke:#000;stroke-width:1px;"/><rect x="949.703" y="212.813" width="48.929" height="35.469" style="fill:#a8d791;stroke:#000;stroke-width:1px;"/><rect x="998.631" y="212.813" width="159.664" height="35.469" style="fill:#c9d0ce;stroke:#000;stroke-width:1px;"/><rect x="558.523" y="212.813" width="106.356" height="35.469" style="fill:#b8a767;stroke:#000;stroke-width:1px;"/></g><g><rect x="989.532" y="248.282" width="106.047" height="35.469" style="fill:#b8b8b8;stroke:#000;stroke-width:1px;"/><rect x="883.485" y="248.282" width="106.047" height="35.469" style="fill:#848484;stroke:#954646;stroke-width:1px;"/><rect x="688.214" y="248.282" width="195.271" height="35.469" style="fill:#8c5454;stroke:#000;stroke-width:1px;"/><rect x="519.651" y="248.282" width="168.563" height="35.469" style="fill:#b47ca3;stroke:#000;stroke-width:1px;"/><rect x="1095.58" y="248.282" width="184.422" height="35.469" style="fill:#b47ca3;stroke:#000;stroke-width:1px;"/><rect x="413.604" y="248.282" width="106.047" height="35.469" style="fill:#c5cc8e;stroke:#000;stroke-width:1px;"/><rect x="201.51" y="248.282" width="106.047" height="35.469" style="fill:#5275ad;stroke:#000;stroke-width:1px;"/><rect x="23.563" y="248.282" width="177.947" height="35.469" style="fill:#957777;stroke:#000;stroke-width:1px;"/><rect x="-0" y="248.282" width="23.563" height="35.469" style="fill:#a8d791;stroke:#000;stroke-width:1px;"/><rect x="307.557" y="248.282" width="106.047" height="35.469" style="fill:#b8a767;stroke:#000;stroke-width:1px;"/></g><g><rect x="62.143" y="283.751" width="106.047" height="35.469" style="fill:#b8b8b8;stroke:#000;stroke-width:1px;"/><rect x="168.19" y="283.751" width="106.047" height="35.469" style="fill:#848484;stroke:#954646;stroke-width:1px;"/><rect x="274.237" y="283.751" width="195.271" height="35.469" style="fill:#8c5454;stroke:#000;stroke-width:1px;"/><rect x="469.508" y="283.751" width="168.563" height="35.469" style="fill:#b47ca3;stroke:#000;stroke-width:1px;"/><rect x="-0" y="283.751" width="62.143" height="35.469" style="fill:#b47ca3;stroke:#000;stroke-width:1px;"/><rect x="638.071" y="283.751" width="106.047" height="35.469" style="fill:#c5cc8e;stroke:#000;stroke-width:1px;"/><rect x="850.165" y="283.751" width="106.047" height="35.469" style="fill:#5275ad;stroke:#000;stroke-width:1px;"/><rect x="956.211" y="283.751" width="177.947" height="35.469" style="fill:#957777;stroke:#000;stroke-width:1px;"/><rect x="1134.16" y="283.751" width="48.786" height="35.469" style="fill:#a8d791;stroke:#000;stroke-width:1px;"/><rect x="1182.94" y="283.751" width="97.056" height="35.469" style="fill:#c9d0ce;stroke:#000;stroke-width:1px;"/><rect x="744.118" y="283.751" width="106.047" height="35.469" style="fill:#b8a767;stroke:#000;stroke-width:1px;"/></g><g><rect x="1171.83" y="319.22" width="108.166" height="35.469" style="fill:#b8b8b8;stroke:#000;stroke-width:1px;"/><rect x="1063.67" y="319.22" width="108.166" height="35.469" style="fill:#848484;stroke:#954646;stroke-width:1px;"/><rect x="864.493" y="319.22" width="199.174" height="35.469" style="fill:#8c5454;stroke:#000;stroke-width:1px;"/><rect x="692.561" y="319.22" width="171.932" height="35.469" style="fill:#b47ca3;stroke:#000;stroke-width:1px;"/><rect x="584.394" y="319.22" width="108.166" height="35.469" style="fill:#c5cc8e;stroke:#000;stroke-width:1px;"/><rect x="368.061" y="319.22" width="108.166" height="35.469" style="fill:#5275ad;stroke:#000;stroke-width:1px;"/><rect x="186.558" y="319.22" width="181.503" height="35.469" style="fill:#957777;stroke:#000;stroke-width:1px;"/><rect x="136.797" y="319.22" width="49.761" height="35.469" style="fill:#a8d791;stroke:#000;stroke-width:1px;"/><rect x="0" y="319.22" width="136.797" height="35.469" style="fill:#c9d0ce;stroke:#000;stroke-width:1px;"/><rect x="476.228" y="319.22" width="108.166" height="35.469" style="fill:#b8a767;stroke:#000;stroke-width:1px;"/></g><g><rect x="44.41" y="354.689" width="106.047" height="35.469" style="fill:#b8b8b8;stroke:#000;stroke-width:1px;"/><rect x="150.456" y="354.689" width="106.047" height="35.469" style="fill:#848484;stroke:#954646;stroke-width:1px;"/><rect x="256.503" y="354.689" width="195.271" height="35.469" style="fill:#8c5454;stroke:#000;stroke-width:1px;"/><rect x="451.774" y="354.689" width="168.563" height="35.469" style="fill:#b47ca3;stroke:#000;stroke-width:1px;"/><rect x="620.337" y="354.689" width="106.047" height="35.469" style="fill:#c5cc8e;stroke:#000;stroke-width:1px;"/><rect x="832.431" y="354.689" width="106.047" height="35.469" style="fill:#5275ad;stroke:#000;stroke-width:1px;"/><rect x="-0" y="354.689" width="44.41" height="35.469" style="fill:#5275ad;stroke:#000;stroke-width:1px;"/><rect x="938.478" y="354.689" width="177.947" height="35.469" style="fill:#957777;stroke:#000;stroke-width:1px;"/><rect x="1116.42" y="354.689" width="48.786" height="35.469" style="fill:#a8d791;stroke:#000;stroke-width:1px;"/><rect x="1165.21" y="354.689" width="114.789" height="35.469" style="fill:#c9d0ce;stroke:#000;stroke-width:1px;"/><rect x="726.384" y="354.689" width="106.047" height="35.469" style="fill:#b8a767;stroke:#000;stroke-width:1px;"/></g><g><rect x="1201.89" y="390.158" width="78.106" height="35.469" style="fill:#b8b8b8;stroke:#000;stroke-width:1px;"/><rect x="1095.85" y="390.158" width="106.047" height="35.469" style="fill:#848484;stroke:#954646;stroke-width:1px;"/><rect x="900.576" y="390.158" width="195.271" height="35.469" style="fill:#8c5454;stroke:#000;stroke-width:1px;"/><rect x="732.013" y="390.158" width="168.563" height="35.469" style="fill:#b47ca3;stroke:#000;stroke-width:1px;"/><rect x="625.966" y="390.158" width="106.047" height="35.469" style="fill:#c5cc8e;stroke:#000;stroke-width:1px;"/><rect x="413.872" y="390.158" width="106.047" height="35.469" style="fill:#5275ad;stroke:#000;stroke-width:1px;"/><rect x="235.926" y="390.158" width="177.947" height="35.469" style="fill:#957777;stroke:#000;stroke-width:1px;"/><rect x="-0" y="390.158" width="27.941" height="35.469" style="fill:#957777;stroke:#000;stroke-width:1px;"/><rect x="187.139" y="390.158" width="48.786" height="35.469" style="fill:#a8d791;stroke:#000;stroke-width:1px;"/><rect x="27.941" y="390.158" width="159.199" height="35.469" style="fill:#c9d0ce;stroke:#000;stroke-width:1px;"/><rect x="519.919" y="390.158" width="106.047" height="35.469" style="fill:#b8a767;stroke:#000;stroke-width:1px;"/></g><g><rect x="-0" y="425.627" width="67.902" height="35.469" style="fill:#b8b8b8;stroke:#000;stroke-width:1px;"/><rect x="67.902" y="425.627" width="109.493" height="35.469" style="fill:#848484;stroke:#954646;stroke-width:1px;"/><rect x="177.394" y="425.627" width="201.616" height="35.469" style="fill:#8c5454;stroke:#000;stroke-width:1px;"/><rect x="379.01" y="425.627" width="174.04" height="35.469" style="fill:#b47ca3;stroke:#000;stroke-width:1px;"/><rect x="553.05" y="425.627" width="109.493" height="35.469" style="fill:#c5cc8e;stroke:#000;stroke-width:1px;"/><rect x="772.036" y="425.627" width="109.493" height="35.469" style="fill:#5275ad;stroke:#000;stroke-width:1px;"/><rect x="881.528" y="425.627" width="183.729" height="35.469" style="fill:#957777;stroke:#000;stroke-width:1px;"/><rect x="1065.26" y="425.627" width="50.371" height="35.469" style="fill:#a8d791;stroke:#000;stroke-width:1px;"/><rect x="1115.63" y="425.627" width="164.372" height="35.469" style="fill:#c9d0ce;stroke:#000;stroke-width:1px;"/><rect x="662.543" y="425.627" width="109.493" height="35.469" style="fill:#b8a767;stroke:#000;stroke-width:1px;"/></g><g><rect x="1085.75" y="461.096" width="195.271" height="35.469" style="fill:#8c5454;stroke:#000;stroke-width:1px;"/><rect x="917.191" y="461.096" width="168.563" height="35.469" style="fill:#b47ca3;stroke:#000;stroke-width:1px;"/><rect x="811.144" y="461.096" width="106.047" height="35.469" style="fill:#c5cc8e;stroke:#000;stroke-width:1px;"/><rect x="599.05" y="461.096" width="106.047" height="35.469" style="fill:#5275ad;stroke:#000;stroke-width:1px;"/><rect x="421.103" y="461.096" width="177.947" height="35.469" style="fill:#957777;stroke:#000;stroke-width:1px;"/><rect x="372.317" y="461.096" width="48.786" height="35.469" style="fill:#a8d791;stroke:#000;stroke-width:1px;"/><rect x="213.118" y="461.096" width="159.199" height="35.469" style="fill:#c9d0ce;stroke:#000;stroke-width:1px;"/><rect x="705.097" y="461.096" width="106.047" height="35.469" style="fill:#b8a767;stroke:#000;stroke-width:1px;"/></g><g><rect x="238.241" y="496.565" width="106.047" height="35.469" style="fill:#b8b8b8;stroke:#000;stroke-width:1px;"/><rect x="344.288" y="496.565" width="106.047" height="35.469" style="fill:#848484;stroke:#954646;stroke-width:1px;"/><rect x="450.335" y="496.565" width="195.271" height="35.469" style="fill:#8c5454;stroke:#000;stroke-width:1px;"/><rect x="645.606" y="496.565" width="168.563" height="35.469" style="fill:#b47ca3;stroke:#000;stroke-width:1px;"/><rect x="814.169" y="496.565" width="106.047" height="35.469" style="fill:#c5cc8e;stroke:#000;stroke-width:1px;"/><rect x="1.025" y="496.565" width="131.17" height="35.469" style="fill:#c5cc8e;stroke:#000;stroke-width:1px;"/><rect x="1026.26" y="496.565" width="106.047" height="35.469" style="fill:#5275ad;stroke:#000;stroke-width:1px;"/><rect x="132.194" y="496.565" width="106.047" height="35.469" style="fill:#5275ad;stroke:#000;stroke-width:1px;"/><rect x="1132.31" y="496.565" width="147.691" height="35.469" style="fill:#957777;stroke:#000;stroke-width:1px;"/><rect x="920.216" y="496.565" width="106.047" height="35.469" style="fill:#b8a767;stroke:#000;stroke-width:1px;"/></g><g><rect x="973.648" y="532.034" width="106.047" height="35.469" style="fill:#b8b8b8;stroke:#000;stroke-width:1px;"/><rect x="867.601" y="532.034" width="106.047" height="35.469" style="fill:#848484;stroke:#954646;stroke-width:1px;"/><rect x="672.33" y="532.034" width="195.271" height="35.469" style="fill:#8c5454;stroke:#000;stroke-width:1px;"/><rect x="503.767" y="532.034" width="168.563" height="35.469" style="fill:#b47ca3;stroke:#000;stroke-width:1px;"/><rect x="397.72" y="532.034" width="106.047" height="35.469" style="fill:#c5cc8e;stroke:#000;stroke-width:1px;"/><rect x="1185.74" y="532.034" width="94.258" height="35.469" style="fill:#b47ca3;stroke:#000;stroke-width:1px;"/><rect x="1079.69" y="532.034" width="106.047" height="35.469" style="fill:#c5cc8e;stroke:#000;stroke-width:1px;"/><rect x="185.627" y="532.034" width="106.047" height="35.469" style="fill:#5275ad;stroke:#000;stroke-width:1px;"/><rect x="7.68" y="532.034" width="177.947" height="35.469" style="fill:#957777;stroke:#000;stroke-width:1px;"/><rect x="0" y="532.034" width="7.68" height="35.469" style="fill:#a8d791;stroke:#000;stroke-width:1px;"/><rect x="291.674" y="532.034" width="106.047" height="35.469" style="fill:#b8a767;stroke:#000;stroke-width:1px;"/></g><g><rect x="-0" y="567.503" width="70.256" height="35.469" style="fill:#8c5454;stroke:#000;stroke-width:1px;"/><rect x="70.256" y="567.503" width="184.083" height="35.469" style="fill:#b47ca3;stroke:#000;stroke-width:1px;"/><rect x="254.338" y="567.503" width="115.811" height="35.469" style="fill:#c5cc8e;stroke:#000;stroke-width:1px;"/><rect x="485.96" y="567.503" width="115.811" height="35.469" style="fill:#5275ad;stroke:#000;stroke-width:1px;"/><rect x="601.771" y="567.503" width="194.331" height="35.469" style="fill:#957777;stroke:#000;stroke-width:1px;"/><rect x="796.101" y="567.503" width="53.278" height="35.469" style="fill:#a8d791;stroke:#000;stroke-width:1px;"/><rect x="849.379" y="567.503" width="173.856" height="35.469" style="fill:#c9d0ce;stroke:#000;stroke-width:1px;"/><rect x="370.149" y="567.503" width="115.811" height="35.469" style="fill:#b8a767;stroke:#000;stroke-width:1px;"/><rect x="1145.68" y="567.503" width="134.318" height="35.469" style="fill:#5275ad;stroke:#000;stroke-width:1px;"/><rect x="1011.37" y="567.503" width="134.318" height="35.469" style="fill:#b8a767;stroke:#000;stroke-width:1px;"/></g><g><rect x="1024.86" y="602.971" width="106.047" height="35.469" style="fill:#b8b8b8;stroke:#000;stroke-width:1px;"/><rect x="918.816" y="602.971" width="106.047" height="35.469" style="fill:#848484;stroke:#954646;stroke-width:1px;"/><rect x="723.544" y="602.971" width="195.271" height="35.469" style="fill:#8c5454;stroke:#000;stroke-width:1px;"/><rect x="554.982" y="602.971" width="168.563" height="35.469" style="fill:#b47ca3;stroke:#000;stroke-width:1px;"/><rect x="448.935" y="602.971" width="106.047" height="35.469" style="fill:#c5cc8e;stroke:#000;stroke-width:1px;"/><rect x="236.841" y="602.971" width="106.047" height="35.469" style="fill:#5275ad;stroke:#000;stroke-width:1px;"/><rect x="58.894" y="602.971" width="177.947" height="35.469" style="fill:#957777;stroke:#000;stroke-width:1px;"/><rect x="1130.91" y="602.971" width="149.091" height="35.469" style="fill:#957777;stroke:#000;stroke-width:1px;"/><rect x="0" y="602.971" width="58.894" height="35.469" style="fill:#a8d791;stroke:#000;stroke-width:1px;"/><rect x="342.888" y="602.971" width="106.047" height="35.469" style="fill:#b8a767;stroke:#000;stroke-width:1px;"/></g><g><rect x="0" y="638.44" width="72.154" height="35.469" style="fill:#b8b8b8;stroke:#000;stroke-width:1px;"/><rect x="72.154" y="638.44" width="106.047" height="35.469" style="fill:#848484;stroke:#954646;stroke-width:1px;"/><rect x="178.201" y="638.44" width="195.271" height="35.469" style="fill:#8c5454;stroke:#000;stroke-width:1px;"/><rect x="373.472" y="638.44" width="168.563" height="35.469" style="fill:#b47ca3;stroke:#000;stroke-width:1px;"/><rect x="542.034" y="638.44" width="106.047" height="35.469" style="fill:#c5cc8e;stroke:#000;stroke-width:1px;"/><rect x="754.128" y="638.44" width="106.047" height="35.469" style="fill:#5275ad;stroke:#000;stroke-width:1px;"/><rect x="860.175" y="638.44" width="177.947" height="35.469" style="fill:#957777;stroke:#000;stroke-width:1px;"/><rect x="1038.12" y="638.44" width="48.786" height="35.469" style="fill:#a8d791;stroke:#000;stroke-width:1px;"/><rect x="1246.11" y="638.44" width="33.893" height="35.469" style="fill:#a8d791;stroke:#000;stroke-width:1px;"/><rect x="1086.91" y="638.44" width="159.199" height="35.469" style="fill:#c9d0ce;stroke:#000;stroke-width:1px;"/><rect x="648.081" y="638.44" width="106.047" height="35.469" style="fill:#b8a767;stroke:#000;stroke-width:1px;"/></g><g><rect x="1171.12" y="673.909" width="108.877" height="35.469" style="fill:#848484;stroke:#954646;stroke-width:1px;"/><rect x="975.852" y="673.909" width="195.271" height="35.469" style="fill:#8c5454;stroke:#000;stroke-width:1px;"/><rect x="807.289" y="673.909" width="168.563" height="35.469" style="fill:#b47ca3;stroke:#000;stroke-width:1px;"/><rect x="701.242" y="673.909" width="106.047" height="35.469" style="fill:#c5cc8e;stroke:#000;stroke-width:1px;"/><rect x="489.148" y="673.909" width="106.047" height="35.469" style="fill:#5275ad;stroke:#000;stroke-width:1px;"/><rect x="311.201" y="673.909" width="177.947" height="35.469" style="fill:#957777;stroke:#000;stroke-width:1px;"/><rect x="262.415" y="673.909" width="48.786" height="35.469" style="fill:#a8d791;stroke:#000;stroke-width:1px;"/><rect x="0" y="673.909" width="103.216" height="35.469" style="fill:#a8d791;stroke:#000;stroke-width:1px;"/><rect x="103.216" y="673.909" width="159.199" height="35.469" style="fill:#c9d0ce;stroke:#000;stroke-width:1px;"/><rect x="595.195" y="673.909" width="106.047" height="35.469" style="fill:#b8a767;stroke:#000;stroke-width:1px;"/></g><g><rect x="0" y="709.378" width="36.34" height="35.469" style="fill:#b8b8b8;stroke:#000;stroke-width:1px;"/><rect x="36.34" y="709.378" width="106.047" height="35.469" style="fill:#848484;stroke:#954646;stroke-width:1px;"/><rect x="142.386" y="709.378" width="195.271" height="35.469" style="fill:#8c5454;stroke:#000;stroke-width:1px;"/><rect x="337.658" y="709.378" width="168.563" height="35.469" style="fill:#b47ca3;stroke:#000;stroke-width:1px;"/><rect x="506.22" y="709.378" width="106.047" height="35.469" style="fill:#c5cc8e;stroke:#000;stroke-width:1px;"/><rect x="718.314" y="709.378" width="106.047" height="35.469" style="fill:#5275ad;stroke:#000;stroke-width:1px;"/><rect x="1210.03" y="709.378" width="69.97" height="35.469" style="fill:#5275ad;stroke:#000;stroke-width:1px;"/><rect x="824.361" y="709.378" width="177.947" height="35.469" style="fill:#957777;stroke:#000;stroke-width:1px;"/><rect x="1002.31" y="709.378" width="48.786" height="35.469" style="fill:#a8d791;stroke:#000;stroke-width:1px;"/><rect x="1051.09" y="709.378" width="159.199" height="35.469" style="fill:#c9d0ce;stroke:#000;stroke-width:1px;"/><rect x="612.267" y="709.378" width="106.047" height="35.469" style="fill:#b8a767;stroke:#000;stroke-width:1px;"/></g><g><rect x="1173.95" y="744.847" width="106.047" height="35.469" style="fill:#b8b8b8;stroke:#000;stroke-width:1px;"/><rect x="1067.91" y="744.847" width="106.047" height="35.469" style="fill:#848484;stroke:#954646;stroke-width:1px;"/><rect x="872.635" y="744.847" width="195.271" height="35.469" style="fill:#8c5454;stroke:#000;stroke-width:1px;"/><rect x="704.072" y="744.847" width="168.563" height="35.469" style="fill:#b47ca3;stroke:#000;stroke-width:1px;"/><rect x="598.025" y="744.847" width="106.047" height="35.469" style="fill:#c5cc8e;stroke:#000;stroke-width:1px;"/><rect x="385.932" y="744.847" width="106.047" height="35.469" style="fill:#5275ad;stroke:#000;stroke-width:1px;"/><rect x="207.985" y="744.847" width="177.947" height="35.469" style="fill:#957777;stroke:#000;stroke-width:1px;"/><rect x="159.199" y="744.847" width="48.786" height="35.469" style="fill:#a8d791;stroke:#000;stroke-width:1px;"/><rect x="0" y="744.847" width="159.199" height="35.469" style="fill:#c9d0ce;stroke:#000;stroke-width:1px;"/><rect x="491.979" y="744.847" width="106.047" height="35.469" style="fill:#b8a767;stroke:#000;stroke-width:1px;"/></g><g><rect x="0" y="780.316" width="106.047" height="19.684" style="fill:#b8b8b8;stroke:#000;stroke-width:1px;"/><rect x="106.047" y="780.316" width="106.047" height="19.684" style="fill:#848484;stroke:#954646;stroke-width:1px;"/><rect x="212.094" y="780.316" width="195.271" height="19.684" style="fill:#8c5454;stroke:#000;stroke-width:1px;"/><rect x="407.365" y="780.316" width="168.563" height="19.684" style="fill:#b47ca3;stroke:#000;stroke-width:1px;"/><rect x="575.928" y="780.316" width="106.047" height="19.684" style="fill:#c5cc8e;stroke:#000;stroke-width:1px;"/><rect x="788.021" y="780.316" width="106.047" height="19.684" style="fill:#5275ad;stroke:#000;stroke-width:1px;"/><rect x="894.068" y="780.316" width="177.947" height="19.684" style="fill:#957777;stroke:#000;stroke-width:1px;"/><rect x="1072.02" y="780.316" width="48.786" height="19.684" style="fill:#a8d791;stroke:#000;stroke-width:1px;"/><rect x="1120.8" y="780.316" width="159.199" height="19.684" style="fill:#c9d0ce;stroke:#000;stroke-width:1px;"/><rect x="681.975" y="780.316" width="106.047" height="19.684" style="fill:#b8a767;stroke:#000;stroke-width:1px;"/></g><g><g transform="matrix(-0.712001,0.702178,-0.702178,-0.712001,1815.16,335.072)"><g transform="matrix(80.3766,-52.4938,52.4938,80.3766,723.2,526.51)"><path d="M0.115,-0l0,-0.616l-0.118,0l0,-0.096l0.338,0l0,0.096l-0.118,0l-0,0.616l-0.102,-0Z" style="fill:#00159e;fill-rule:nonzero;stroke:#dfdfdf;stroke-width:0.01px;stroke-linecap:butt;stroke-miterlimit:2;"/></g><g transform="matrix(86.2822,-42.0877,42.0877,86.2822,749.859,508.899)"><path d="M0.042,-0l0,-0.712l0.102,0l0,0.254l0.002,-0c0.011,-0.016 0.023,-0.029 0.038,-0.04c0.015,-0.01 0.035,-0.015 0.058,-0.015c0.013,-0 0.025,0.002 0.038,0.006c0.013,0.005 0.024,0.012 0.034,0.022c0.01,0.01 0.018,0.023 0.024,0.038c0.006,0.016 0.009,0.035 0.009,0.058l-0,0.389l-0.102,-0l-0,-0.351c-0,-0.019 -0.004,-0.033 -0.013,-0.044c-0.009,-0.011 -0.021,-0.016 -0.037,-0.016c-0.019,-0 -0.033,0.006 -0.04,0.018c-0.007,0.012 -0.011,0.029 -0.011,0.052l-0,0.341l-0.102,-0Z" style="fill:#00159e;fill-rule:nonzero;stroke:#dfdfdf;stroke-width:0.01px;stroke-linecap:butt;stroke-miterlimit:2;"/></g><g transform="matrix(90.8068,-31.1467,31.1467,90.8068,783.542,492.694)"><path d="M0.042,-0l0,-0.507l0.102,0l0,0.054c0.021,-0.019 0.041,-0.033 0.061,-0.044c0.02,-0.011 0.045,-0.016 0.074,-0.016l0,0.108c-0.01,-0.004 -0.02,-0.006 -0.031,-0.006c-0.011,0 -0.022,0.002 -0.035,0.006c-0.012,0.003 -0.023,0.009 -0.033,0.018c-0.011,0.009 -0.019,0.02 -0.026,0.034c-0.007,0.014 -0.01,0.031 -0.01,0.052l0,0.301l-0.102,-0Z" style="fill:#00159e;fill-rule:nonzero;stroke:#dfdfdf;stroke-width:0.01px;stroke-linecap:butt;stroke-miterlimit:2;"/></g><g transform="matrix(93.5856,-21.3949,21.3949,93.5856,808.804,483.674)"><path d="M0.337,-0.215l-0.202,0l0,0.069c0,0.016 0.004,0.028 0.013,0.037c0.009,0.009 0.022,0.013 0.037,0.013c0.019,-0 0.032,-0.006 0.038,-0.017c0.007,-0.011 0.011,-0.023 0.012,-0.034l0.102,0c-0,0.045 -0.014,0.081 -0.041,0.108c-0.013,0.014 -0.029,0.025 -0.048,0.033c-0.019,0.008 -0.04,0.012 -0.063,0.012c-0.032,-0 -0.059,-0.007 -0.082,-0.02c-0.022,-0.013 -0.039,-0.031 -0.051,-0.053c-0.007,-0.013 -0.012,-0.029 -0.015,-0.046c-0.003,-0.017 -0.004,-0.036 -0.004,-0.057l-0,-0.167c-0,-0.021 0.001,-0.04 0.004,-0.057c0.003,-0.017 0.008,-0.033 0.015,-0.046c0.012,-0.022 0.029,-0.04 0.051,-0.053c0.023,-0.013 0.05,-0.02 0.082,-0.02c0.023,-0 0.044,0.004 0.063,0.012c0.019,0.008 0.036,0.019 0.049,0.033c0.027,0.03 0.04,0.068 0.04,0.113l-0,0.14Zm-0.202,-0.08l0.1,-0l-0,-0.058c-0,-0.019 -0.005,-0.034 -0.014,-0.044c-0.009,-0.009 -0.021,-0.014 -0.036,-0.014c-0.015,-0 -0.028,0.005 -0.037,0.014c-0.009,0.01 -0.013,0.025 -0.013,0.044l-0,0.058Z" style="fill:#00159e;fill-rule:nonzero;stroke:#dfdfdf;stroke-width:0.01px;stroke-linecap:butt;stroke-miterlimit:2;"/></g><g transform="matrix(95.5377,-9.41,9.41,95.5377,843.401,475.791)"><path d="M0.235,-0l0,-0.052l-0.002,0c-0.013,0.019 -0.027,0.033 -0.041,0.043c-0.013,0.01 -0.032,0.015 -0.057,0.015c-0.012,0 -0.024,-0.002 -0.037,-0.005c-0.012,-0.004 -0.024,-0.011 -0.035,-0.021c-0.011,-0.009 -0.02,-0.023 -0.027,-0.04c-0.008,-0.018 -0.011,-0.041 -0.011,-0.069c0,-0.029 0.002,-0.054 0.007,-0.076c0.005,-0.021 0.013,-0.039 0.026,-0.054c0.012,-0.014 0.028,-0.025 0.049,-0.031c0.021,-0.007 0.047,-0.011 0.079,-0.011l0.011,0c0.004,0 0.008,0 0.011,0.001c0.003,0.001 0.007,0.001 0.012,0.001c0.005,0 0.01,0 0.015,0.001l-0,-0.053c-0,-0.017 -0.004,-0.032 -0.011,-0.043c-0.007,-0.011 -0.021,-0.017 -0.04,-0.017c-0.013,0 -0.026,0.004 -0.037,0.013c-0.011,0.009 -0.018,0.021 -0.021,0.038l-0.099,0c0.003,-0.045 0.018,-0.082 0.046,-0.11c0.013,-0.013 0.029,-0.024 0.048,-0.032c0.019,-0.007 0.04,-0.011 0.063,-0.011c0.021,0 0.041,0.003 0.06,0.01c0.019,0.007 0.035,0.017 0.049,0.03c0.013,0.013 0.024,0.03 0.032,0.05c0.008,0.02 0.012,0.043 0.012,0.07l-0,0.353l-0.102,-0Zm-0,-0.218c-0.011,-0.002 -0.021,-0.003 -0.028,-0.003c-0.022,0 -0.041,0.005 -0.057,0.015c-0.015,0.011 -0.023,0.03 -0.023,0.057c-0,0.019 0.005,0.035 0.014,0.047c0.009,0.012 0.022,0.018 0.039,0.018c0.017,0 0.031,-0.006 0.04,-0.017c0.01,-0.011 0.015,-0.027 0.015,-0.048l-0,-0.069Z" style="fill:#00159e;fill-rule:nonzero;stroke:#dfdfdf;stroke-width:0.01px;stroke-linecap:butt;stroke-miterlimit:2;"/></g><g transform="matrix(95.9493,3.11928,-3.11928,95.9493,878.728,472.282)"><path d="M0.144,-0.165c0,0.021 0.004,0.037 0.012,0.05c0.008,0.013 0.021,0.019 0.038,0.019c0.015,-0 0.028,-0.006 0.037,-0.018c0.009,-0.011 0.014,-0.026 0.014,-0.045l-0,-0.197c-0,-0.016 -0.005,-0.029 -0.015,-0.04c-0.009,-0.01 -0.021,-0.015 -0.036,-0.015c-0.019,-0 -0.033,0.006 -0.04,0.018c-0.007,0.012 -0.01,0.026 -0.01,0.042l0,0.186Zm0.101,0.165l-0,-0.046c-0.007,0.007 -0.013,0.014 -0.019,0.02c-0.006,0.007 -0.013,0.012 -0.02,0.017c-0.007,0.005 -0.016,0.008 -0.025,0.011c-0.009,0.003 -0.02,0.004 -0.033,0.004c-0.043,-0 -0.072,-0.016 -0.089,-0.048c-0.006,-0.011 -0.01,-0.025 -0.013,-0.042c-0.003,-0.017 -0.004,-0.039 -0.004,-0.067l-0,-0.193c-0,-0.037 0.001,-0.064 0.003,-0.081c0.004,-0.033 0.02,-0.058 0.047,-0.075c0.013,-0.009 0.032,-0.013 0.057,-0.013c0.02,0 0.038,0.004 0.053,0.014c0.016,0.009 0.03,0.021 0.041,0.038l0.002,0l-0,-0.251l0.102,0l-0,0.712l-0.102,-0Z" style="fill:#00159e;fill-rule:nonzero;stroke:#dfdfdf;stroke-width:0.01px;stroke-linecap:butt;stroke-miterlimit:2;"/></g><g transform="matrix(94.7668,15.3377,-15.3377,94.7668,916.2,473.617)"><path d="M0.227,-0.365c-0.001,-0.017 -0.006,-0.03 -0.017,-0.039c-0.01,-0.009 -0.022,-0.013 -0.035,-0.013c-0.016,0 -0.028,0.005 -0.037,0.015c-0.009,0.011 -0.013,0.023 -0.013,0.036c0,0.009 0.002,0.019 0.007,0.027c0.005,0.009 0.017,0.018 0.036,0.025l0.06,0.024c0.038,0.015 0.064,0.035 0.078,0.06c0.015,0.025 0.022,0.053 0.022,0.083c0,0.021 -0.004,0.041 -0.012,0.059c-0.007,0.019 -0.018,0.035 -0.031,0.049c-0.013,0.014 -0.029,0.025 -0.048,0.033c-0.019,0.008 -0.039,0.012 -0.061,0.012c-0.041,-0 -0.076,-0.013 -0.104,-0.039c-0.014,-0.013 -0.025,-0.029 -0.034,-0.048c-0.009,-0.019 -0.013,-0.041 -0.014,-0.066l0.096,-0c0.002,0.014 0.007,0.027 0.014,0.039c0.008,0.012 0.022,0.018 0.041,0.018c0.015,-0 0.028,-0.005 0.039,-0.015c0.012,-0.009 0.018,-0.023 0.018,-0.04c-0,-0.014 -0.004,-0.026 -0.011,-0.036c-0.007,-0.01 -0.021,-0.019 -0.04,-0.026l-0.049,-0.018c-0.032,-0.012 -0.057,-0.03 -0.076,-0.054c-0.018,-0.023 -0.027,-0.052 -0.027,-0.086c-0,-0.021 0.004,-0.041 0.012,-0.06c0.008,-0.018 0.019,-0.034 0.033,-0.047c0.013,-0.013 0.029,-0.024 0.047,-0.031c0.018,-0.007 0.037,-0.01 0.058,-0.01c0.021,-0 0.04,0.004 0.057,0.011c0.018,0.007 0.033,0.018 0.046,0.031c0.013,0.013 0.023,0.029 0.03,0.047c0.007,0.019 0.011,0.038 0.011,0.059l-0.096,-0Z" style="fill:#00159e;fill-rule:nonzero;stroke:#dfdfdf;stroke-width:0.01px;stroke-linecap:butt;stroke-miterlimit:2;"/></g></g><g transform="matrix(-0.25486,-0.966978,0.966978,-0.25486,156.184,1474.49)"><g transform="matrix(75.784,-58.9304,58.9304,75.784,702.415,543.136)"><path d="M0.254,-0.249l-0.05,-0.258l-0.002,0l-0.05,0.258l0.102,0Zm-0.252,0.249l0.159,-0.712l0.085,0l0.159,0.712l-0.102,-0l-0.03,-0.153l-0.139,0l-0.03,0.153l-0.102,-0Z" style="fill:#136300;fill-rule:nonzero;stroke:#dfdfdf;stroke-width:0.01px;stroke-linecap:butt;stroke-miterlimit:2;"/></g><g transform="matrix(82.812,-48.5611,48.5611,82.812,733.364,519.286)"><path d="M0.227,-0.365c-0.001,-0.017 -0.006,-0.03 -0.017,-0.039c-0.01,-0.009 -0.022,-0.013 -0.035,-0.013c-0.016,0 -0.028,0.005 -0.037,0.015c-0.009,0.011 -0.013,0.023 -0.013,0.036c0,0.009 0.002,0.019 0.007,0.027c0.005,0.009 0.017,0.018 0.036,0.025l0.06,0.024c0.038,0.015 0.064,0.035 0.078,0.06c0.015,0.025 0.022,0.053 0.022,0.083c0,0.021 -0.004,0.041 -0.012,0.059c-0.007,0.019 -0.018,0.035 -0.031,0.049c-0.013,0.014 -0.029,0.025 -0.048,0.033c-0.019,0.008 -0.039,0.012 -0.061,0.012c-0.041,-0 -0.076,-0.013 -0.104,-0.039c-0.014,-0.013 -0.025,-0.029 -0.034,-0.048c-0.009,-0.019 -0.013,-0.041 -0.014,-0.066l0.096,-0c0.002,0.014 0.007,0.027 0.014,0.039c0.008,0.012 0.022,0.018 0.041,0.018c0.015,-0 0.028,-0.005 0.039,-0.015c0.012,-0.009 0.018,-0.023 0.018,-0.04c-0,-0.014 -0.004,-0.026 -0.011,-0.036c-0.007,-0.01 -0.021,-0.019 -0.04,-0.026l-0.049,-0.018c-0.032,-0.012 -0.057,-0.03 -0.076,-0.054c-0.018,-0.023 -0.027,-0.052 -0.027,-0.086c-0,-0.021 0.004,-0.041 0.012,-0.06c0.008,-0.018 0.019,-0.034 0.033,-0.047c0.013,-0.013 0.029,-0.024 0.047,-0.031c0.018,-0.007 0.037,-0.01 0.058,-0.01c0.021,-0 0.04,0.004 0.057,0.011c0.018,0.007 0.033,0.018 0.046,0.031c0.013,0.013 0.023,0.029 0.03,0.047c0.007,0.019 0.011,0.038 0.011,0.059l-0.096,-0Z" style="fill:#136300;fill-rule:nonzero;stroke:#dfdfdf;stroke-width:0.01px;stroke-linecap:butt;stroke-miterlimit:2;"/></g><g transform="matrix(88.1033,-38.1289,38.1289,88.1033,762.54,502.177)"><path d="M-0.001,-0.507l0.108,0l0.07,0.316l0.002,0l0.069,-0.316l0.105,0l-0.146,0.595c-0.005,0.023 -0.013,0.041 -0.022,0.056c-0.01,0.015 -0.021,0.027 -0.034,0.036c-0.013,0.009 -0.026,0.016 -0.04,0.02c-0.015,0.003 -0.03,0.005 -0.045,0.005l-0.028,0l0,-0.096l0.023,0c0.01,0 0.019,-0.001 0.026,-0.004c0.007,-0.003 0.014,-0.009 0.02,-0.018c0.005,-0.009 0.01,-0.022 0.015,-0.039c0.005,-0.017 0.01,-0.041 0.016,-0.071l-0.139,-0.484Z" style="fill:#136300;fill-rule:nonzero;stroke:#dfdfdf;stroke-width:0.01px;stroke-linecap:butt;stroke-miterlimit:2;"/></g><g transform="matrix(92.2798,-26.4657,26.4657,92.2798,793.606,488.613)"><path d="M0.042,-0l0,-0.507l0.102,0l0,0.049l0.002,0c0.011,-0.016 0.023,-0.029 0.038,-0.039c0.015,-0.011 0.035,-0.016 0.058,-0.016c0.013,0 0.025,0.002 0.038,0.006c0.013,0.005 0.024,0.012 0.034,0.022c0.01,0.01 0.018,0.023 0.024,0.038c0.006,0.016 0.009,0.035 0.009,0.058l-0,0.389l-0.102,-0l-0,-0.351c-0,-0.019 -0.004,-0.033 -0.013,-0.044c-0.009,-0.011 -0.021,-0.016 -0.037,-0.016c-0.019,0 -0.033,0.006 -0.04,0.018c-0.007,0.012 -0.011,0.029 -0.011,0.052l-0,0.341l-0.102,-0Z" style="fill:#136300;fill-rule:nonzero;stroke:#dfdfdf;stroke-width:0.01px;stroke-linecap:butt;stroke-miterlimit:2;"/></g><g transform="matrix(95.0289,-13.6199,13.6199,95.0289,829.501,478.284)"><path d="M0.15,-0.146c0,0.016 0.005,0.028 0.014,0.037c0.008,0.009 0.021,0.013 0.036,0.013c0.019,-0 0.032,-0.006 0.039,-0.017c0.006,-0.011 0.01,-0.023 0.011,-0.034l0.102,0c0,0.045 -0.014,0.081 -0.041,0.108c-0.013,0.014 -0.029,0.025 -0.048,0.033c-0.019,0.008 -0.04,0.012 -0.063,0.012c-0.032,-0 -0.059,-0.007 -0.082,-0.02c-0.022,-0.013 -0.039,-0.031 -0.051,-0.053c-0.007,-0.013 -0.012,-0.029 -0.015,-0.046c-0.003,-0.017 -0.004,-0.036 -0.004,-0.057l0,-0.167c0,-0.021 0.001,-0.04 0.004,-0.057c0.003,-0.017 0.008,-0.033 0.015,-0.046c0.012,-0.022 0.029,-0.04 0.052,-0.053c0.022,-0.013 0.049,-0.02 0.081,-0.02c0.023,-0 0.045,0.004 0.064,0.012c0.018,0.008 0.035,0.019 0.048,0.033c0.027,0.03 0.04,0.069 0.04,0.117l-0.102,-0c0,-0.021 -0.004,-0.036 -0.013,-0.046c-0.009,-0.009 -0.022,-0.014 -0.037,-0.014c-0.015,-0 -0.027,0.005 -0.036,0.014c-0.009,0.01 -0.014,0.025 -0.014,0.044l0,0.207Z" style="fill:#136300;fill-rule:nonzero;stroke:#dfdfdf;stroke-width:0.01px;stroke-linecap:butt;stroke-miterlimit:2;"/></g><g transform="matrix(95.8727,-4.94268,4.94268,95.8727,864.785,473.572)"><path d="M0.042,-0l0,-0.507l0.102,0l0,0.507l-0.102,-0Zm-0,-0.61l-0,-0.102l0.102,0l0,0.102l-0.102,0Z" style="fill:#136300;fill-rule:nonzero;stroke:#dfdfdf;stroke-width:0.01px;stroke-linecap:butt;stroke-miterlimit:2;"/></g><g transform="matrix(95.9121,4.10728,-4.10728,95.9121,882.541,472.238)"><path d="M0.033,-0.337c0,-0.021 0.001,-0.04 0.004,-0.057c0.003,-0.017 0.008,-0.033 0.015,-0.046c0.012,-0.022 0.029,-0.04 0.052,-0.053c0.022,-0.013 0.049,-0.02 0.081,-0.02c0.032,0 0.059,0.007 0.082,0.02c0.022,0.013 0.039,0.031 0.051,0.053c0.007,0.013 0.012,0.029 0.015,0.046c0.003,0.017 0.004,0.036 0.004,0.057l0,0.167c0,0.021 -0.001,0.04 -0.004,0.057c-0.003,0.017 -0.008,0.033 -0.015,0.046c-0.012,0.022 -0.029,0.04 -0.051,0.053c-0.023,0.013 -0.05,0.02 -0.082,0.02c-0.032,0 -0.059,-0.007 -0.081,-0.02c-0.023,-0.013 -0.04,-0.031 -0.052,-0.053c-0.007,-0.013 -0.012,-0.029 -0.015,-0.046c-0.003,-0.017 -0.004,-0.036 -0.004,-0.057l0,-0.167Zm0.102,0.183c0,0.019 0.004,0.034 0.013,0.044c0.009,0.009 0.022,0.014 0.037,0.014c0.015,0 0.027,-0.005 0.036,-0.014c0.009,-0.01 0.014,-0.025 0.014,-0.044l-0,-0.199c-0,-0.019 -0.005,-0.034 -0.014,-0.043c-0.009,-0.01 -0.021,-0.015 -0.036,-0.015c-0.015,0 -0.028,0.005 -0.037,0.015c-0.009,0.009 -0.013,0.024 -0.013,0.043l0,0.199Z" style="fill:#136300;fill-rule:nonzero;stroke:#dfdfdf;stroke-width:0.01px;stroke-linecap:butt;stroke-miterlimit:2;"/></g></g><g transform="matrix(0.988177,-0.153317,0.153317,0.988177,-337.134,-181.285)"><g transform="matrix(77.2571,-56.9854,56.9854,77.2571,702.018,542.7)"><path d="M0.048,-0l0,-0.712l0.098,0l0.131,0.377l0.002,-0l0.13,-0.377l0.099,0l0,0.712l-0.102,-0l0,-0.433l-0.002,0l-0.101,0.306l-0.051,0l-0.1,-0.306l-0.002,0l-0,0.433l-0.102,-0Z" style="fill:#710e00;fill-rule:nonzero;stroke:#dfdfdf;stroke-width:0.01px;stroke-linecap:butt;stroke-miterlimit:2;"/></g><g transform="matrix(85.5001,-43.6546,43.6546,85.5001,745.491,511.46)"><path d="M0.347,-0.507l0,0.507l-0.102,-0l-0,-0.049l-0.002,0c-0.011,0.016 -0.023,0.029 -0.039,0.04c-0.015,0.01 -0.034,0.015 -0.057,0.015c-0.013,0 -0.025,-0.002 -0.038,-0.006c-0.013,-0.005 -0.024,-0.012 -0.034,-0.022c-0.01,-0.01 -0.018,-0.023 -0.024,-0.039c-0.006,-0.015 -0.009,-0.034 -0.009,-0.057l-0,-0.389l0.102,0l0,0.351c0,0.019 0.004,0.033 0.013,0.044c0.009,0.011 0.021,0.016 0.037,0.016c0.019,-0 0.033,-0.006 0.04,-0.018c0.007,-0.012 0.011,-0.029 0.011,-0.052l-0,-0.341l0.102,0Z" style="fill:#710e00;fill-rule:nonzero;stroke:#dfdfdf;stroke-width:0.01px;stroke-linecap:butt;stroke-miterlimit:2;"/></g><g transform="matrix(89.646,-34.3453,34.3453,89.646,778.887,494.876)"><path d="M0.036,-0.712l0.102,0l0,0.569c0,0.019 0.003,0.032 0.01,0.039c0.007,0.007 0.021,0.012 0.04,0.014l-0,0.096c-0.023,-0 -0.044,-0.002 -0.063,-0.006c-0.019,-0.003 -0.035,-0.01 -0.048,-0.021c-0.013,-0.01 -0.024,-0.024 -0.031,-0.043c-0.007,-0.018 -0.01,-0.042 -0.01,-0.072l-0,-0.576Z" style="fill:#710e00;fill-rule:nonzero;stroke:#dfdfdf;stroke-width:0.01px;stroke-linecap:butt;stroke-miterlimit:2;"/></g><g transform="matrix(91.5498,-28.8901,28.8901,91.5498,795.532,488.422)"><path d="M0.042,-0.507l0,-0.154l0.102,0l0,0.154l0.063,0l0,0.08l-0.063,0l0,0.281c0,0.012 0.001,0.021 0.003,0.028c0.003,0.007 0.007,0.012 0.012,0.015c0.005,0.003 0.012,0.005 0.019,0.006c0.008,0.001 0.018,0.001 0.029,0.001l0,0.096l-0.042,-0c-0.023,-0 -0.043,-0.004 -0.059,-0.011c-0.015,-0.007 -0.028,-0.017 -0.037,-0.028c-0.009,-0.011 -0.016,-0.024 -0.021,-0.039c-0.004,-0.014 -0.006,-0.028 -0.006,-0.041l0,-0.308l-0.051,-0l0,-0.08l0.051,-0Z" style="fill:#710e00;fill-rule:nonzero;stroke:#dfdfdf;stroke-width:0.01px;stroke-linecap:butt;stroke-miterlimit:2;"/></g><g transform="matrix(93.3285,-22.4899,22.4899,93.3285,814.291,482.546)"><path d="M0.042,-0l0,-0.507l0.102,0l0,0.507l-0.102,-0Zm-0,-0.61l-0,-0.102l0.102,0l0,0.102l-0.102,0Z" style="fill:#710e00;fill-rule:nonzero;stroke:#dfdfdf;stroke-width:0.01px;stroke-linecap:butt;stroke-miterlimit:2;"/></g><g transform="matrix(95.1026,-13.0957,13.0957,95.1026,831.524,477.895)"><path d="M0.042,0.205l0,-0.712l0.102,-0l0,0.046c0.013,-0.015 0.026,-0.027 0.039,-0.037c0.013,-0.01 0.033,-0.015 0.058,-0.015c0.042,-0 0.072,0.016 0.089,0.048c0.006,0.011 0.01,0.025 0.013,0.042c0.003,0.017 0.004,0.039 0.004,0.067l0,0.193c0,0.037 -0.001,0.064 -0.003,0.081c-0.004,0.033 -0.019,0.058 -0.046,0.075c-0.013,0.009 -0.033,0.013 -0.058,0.013c-0.02,-0 -0.038,-0.005 -0.054,-0.014c-0.015,-0.009 -0.029,-0.021 -0.04,-0.038l-0.002,-0l-0,0.251l-0.102,-0Zm0.203,-0.547c-0,-0.021 -0.004,-0.037 -0.012,-0.05c-0.008,-0.013 -0.021,-0.019 -0.038,-0.019c-0.015,-0 -0.028,0.006 -0.037,0.017c-0.009,0.012 -0.014,0.027 -0.014,0.046l0,0.197c0,0.016 0.005,0.029 0.014,0.039c0.01,0.011 0.022,0.016 0.037,0.016c0.019,-0 0.032,-0.006 0.039,-0.018c0.007,-0.012 0.011,-0.026 0.011,-0.042l-0,-0.186Z" style="fill:#710e00;fill-rule:nonzero;stroke:#dfdfdf;stroke-width:0.01px;stroke-linecap:butt;stroke-miterlimit:2;"/></g><g transform="matrix(95.9891,-1.44596,1.44596,95.9891,868.547,473.004)"><path d="M0.042,-0l0,-0.507l0.102,0l0,0.054c0.021,-0.019 0.041,-0.033 0.061,-0.044c0.02,-0.011 0.045,-0.016 0.074,-0.016l0,0.108c-0.01,-0.004 -0.02,-0.006 -0.031,-0.006c-0.011,0 -0.022,0.002 -0.035,0.006c-0.012,0.003 -0.023,0.009 -0.033,0.018c-0.011,0.009 -0.019,0.02 -0.026,0.034c-0.007,0.014 -0.01,0.031 -0.01,0.052l0,0.301l-0.102,-0Z" style="fill:#710e00;fill-rule:nonzero;stroke:#dfdfdf;stroke-width:0.01px;stroke-linecap:butt;stroke-miterlimit:2;"/></g><g transform="matrix(95.6425,8.27682,-8.27682,95.6425,894.75,472.252)"><path d="M0.033,-0.337c0,-0.021 0.001,-0.04 0.004,-0.057c0.003,-0.017 0.008,-0.033 0.015,-0.046c0.012,-0.022 0.029,-0.04 0.052,-0.053c0.022,-0.013 0.049,-0.02 0.081,-0.02c0.032,0 0.059,0.007 0.082,0.02c0.022,0.013 0.039,0.031 0.051,0.053c0.007,0.013 0.012,0.029 0.015,0.046c0.003,0.017 0.004,0.036 0.004,0.057l0,0.167c0,0.021 -0.001,0.04 -0.004,0.057c-0.003,0.017 -0.008,0.033 -0.015,0.046c-0.012,0.022 -0.029,0.04 -0.051,0.053c-0.023,0.013 -0.05,0.02 -0.082,0.02c-0.032,0 -0.059,-0.007 -0.081,-0.02c-0.023,-0.013 -0.04,-0.031 -0.052,-0.053c-0.007,-0.013 -0.012,-0.029 -0.015,-0.046c-0.003,-0.017 -0.004,-0.036 -0.004,-0.057l0,-0.167Zm0.102,0.183c0,0.019 0.004,0.034 0.013,0.044c0.009,0.009 0.022,0.014 0.037,0.014c0.015,0 0.027,-0.005 0.036,-0.014c0.009,-0.01 0.014,-0.025 0.014,-0.044l-0,-0.199c-0,-0.019 -0.005,-0.034 -0.014,-0.043c-0.009,-0.01 -0.021,-0.015 -0.036,-0.015c-0.015,0 -0.028,0.005 -0.037,0.015c-0.009,0.009 -0.013,0.024 -0.013,0.043l0,0.199Z" style="fill:#710e00;fill-rule:nonzero;stroke:#dfdfdf;stroke-width:0.01px;stroke-linecap:butt;stroke-miterlimit:2;"/></g><g transform="matrix(93.7013,20.8824,-20.8824,93.7013,930.099,475.207)"><path d="M0.15,-0.146c0,0.016 0.005,0.028 0.014,0.037c0.008,0.009 0.021,0.013 0.036,0.013c0.019,-0 0.032,-0.006 0.039,-0.017c0.006,-0.011 0.01,-0.023 0.011,-0.034l0.102,0c0,0.045 -0.014,0.081 -0.041,0.108c-0.013,0.014 -0.029,0.025 -0.048,0.033c-0.019,0.008 -0.04,0.012 -0.063,0.012c-0.032,-0 -0.059,-0.007 -0.082,-0.02c-0.022,-0.013 -0.039,-0.031 -0.051,-0.053c-0.007,-0.013 -0.012,-0.029 -0.015,-0.046c-0.003,-0.017 -0.004,-0.036 -0.004,-0.057l0,-0.167c0,-0.021 0.001,-0.04 0.004,-0.057c0.003,-0.017 0.008,-0.033 0.015,-0.046c0.012,-0.022 0.029,-0.04 0.052,-0.053c0.022,-0.013 0.049,-0.02 0.081,-0.02c0.023,-0 0.045,0.004 0.064,0.012c0.018,0.008 0.035,0.019 0.048,0.033c0.027,0.03 0.04,0.069 0.04,0.117l-0.102,-0c0,-0.021 -0.004,-0.036 -0.013,-0.046c-0.009,-0.009 -0.022,-0.014 -0.037,-0.014c-0.015,-0 -0.027,0.005 -0.036,0.014c-0.009,0.01 -0.014,0.025 -0.014,0.044l0,0.207Z" style="fill:#710e00;fill-rule:nonzero;stroke:#dfdfdf;stroke-width:0.01px;stroke-linecap:butt;stroke-miterlimit:2;"/></g><g transform="matrix(90.4154,32.2655,-32.2655,90.4154,964.799,482.85)"><path d="M0.337,-0.215l-0.202,0l0,0.069c0,0.016 0.004,0.028 0.013,0.037c0.009,0.009 0.022,0.013 0.037,0.013c0.019,-0 0.032,-0.006 0.038,-0.017c0.007,-0.011 0.011,-0.023 0.012,-0.034l0.102,0c-0,0.045 -0.014,0.081 -0.041,0.108c-0.013,0.014 -0.029,0.025 -0.048,0.033c-0.019,0.008 -0.04,0.012 -0.063,0.012c-0.032,-0 -0.059,-0.007 -0.082,-0.02c-0.022,-0.013 -0.039,-0.031 -0.051,-0.053c-0.007,-0.013 -0.012,-0.029 -0.015,-0.046c-0.003,-0.017 -0.004,-0.036 -0.004,-0.057l-0,-0.167c-0,-0.021 0.001,-0.04 0.004,-0.057c0.003,-0.017 0.008,-0.033 0.015,-0.046c0.012,-0.022 0.029,-0.04 0.051,-0.053c0.023,-0.013 0.05,-0.02 0.082,-0.02c0.023,-0 0.044,0.004 0.063,0.012c0.019,0.008 0.036,0.019 0.049,0.033c0.027,0.03 0.04,0.068 0.04,0.113l-0,0.14Zm-0.202,-0.08l0.1,-0l-0,-0.058c-0,-0.019 -0.005,-0.034 -0.014,-0.044c-0.009,-0.009 -0.021,-0.014 -0.036,-0.014c-0.015,-0 -0.028,0.005 -0.037,0.014c-0.009,0.01 -0.013,0.025 -0.013,0.044l-0,0.058Z" style="fill:#710e00;fill-rule:nonzero;stroke:#dfdfdf;stroke-width:0.01px;stroke-linecap:butt;stroke-miterlimit:2;"/></g><g transform="matrix(85.6653,43.3296,-43.3296,85.6653,998.294,494.866)"><path d="M0.227,-0.365c-0.001,-0.017 -0.006,-0.03 -0.017,-0.039c-0.01,-0.009 -0.022,-0.013 -0.035,-0.013c-0.016,0 -0.028,0.005 -0.037,0.015c-0.009,0.011 -0.013,0.023 -0.013,0.036c0,0.009 0.002,0.019 0.007,0.027c0.005,0.009 0.017,0.018 0.036,0.025l0.06,0.024c0.038,0.015 0.064,0.035 0.078,0.06c0.015,0.025 0.022,0.053 0.022,0.083c0,0.021 -0.004,0.041 -0.012,0.059c-0.007,0.019 -0.018,0.035 -0.031,0.049c-0.013,0.014 -0.029,0.025 -0.048,0.033c-0.019,0.008 -0.039,0.012 -0.061,0.012c-0.041,-0 -0.076,-0.013 -0.104,-0.039c-0.014,-0.013 -0.025,-0.029 -0.034,-0.048c-0.009,-0.019 -0.013,-0.041 -0.014,-0.066l0.096,-0c0.002,0.014 0.007,0.027 0.014,0.039c0.008,0.012 0.022,0.018 0.041,0.018c0.015,-0 0.028,-0.005 0.039,-0.015c0.012,-0.009 0.018,-0.023 0.018,-0.04c-0,-0.014 -0.004,-0.026 -0.011,-0.036c-0.007,-0.01 -0.021,-0.019 -0.04,-0.026l-0.049,-0.018c-0.032,-0.012 -0.057,-0.03 -0.076,-0.054c-0.018,-0.023 -0.027,-0.052 -0.027,-0.086c-0,-0.021 0.004,-0.041 0.012,-0.06c0.008,-0.018 0.019,-0.034 0.033,-0.047c0.013,-0.013 0.029,-0.024 0.047,-0.031c0.018,-0.007 0.037,-0.01 0.058,-0.01c0.021,-0 0.04,0.004 0.057,0.011c0.018,0.007 0.033,0.018 0.046,0.031c0.013,0.013 0.023,0.029 0.03,0.047c0.007,0.019 0.011,0.038 0.011,0.059l-0.096,-0Z" style="fill:#710e00;fill-rule:nonzero;stroke:#dfdfdf;stroke-width:0.01px;stroke-linecap:butt;stroke-miterlimit:2;"/></g><g transform="matrix(79.7802,53.3958,-53.3958,79.7802,1028.46,510.13)"><path d="M0.227,-0.365c-0.001,-0.017 -0.006,-0.03 -0.017,-0.039c-0.01,-0.009 -0.022,-0.013 -0.035,-0.013c-0.016,0 -0.028,0.005 -0.037,0.015c-0.009,0.011 -0.013,0.023 -0.013,0.036c0,0.009 0.002,0.019 0.007,0.027c0.005,0.009 0.017,0.018 0.036,0.025l0.06,0.024c0.038,0.015 0.064,0.035 0.078,0.06c0.015,0.025 0.022,0.053 0.022,0.083c0,0.021 -0.004,0.041 -0.012,0.059c-0.007,0.019 -0.018,0.035 -0.031,0.049c-0.013,0.014 -0.029,0.025 -0.048,0.033c-0.019,0.008 -0.039,0.012 -0.061,0.012c-0.041,-0 -0.076,-0.013 -0.104,-0.039c-0.014,-0.013 -0.025,-0.029 -0.034,-0.048c-0.009,-0.019 -0.013,-0.041 -0.014,-0.066l0.096,-0c0.002,0.014 0.007,0.027 0.014,0.039c0.008,0.012 0.022,0.018 0.041,0.018c0.015,-0 0.028,-0.005 0.039,-0.015c0.012,-0.009 0.018,-0.023 0.018,-0.04c-0,-0.014 -0.004,-0.026 -0.011,-0.036c-0.007,-0.01 -0.021,-0.019 -0.04,-0.026l-0.049,-0.018c-0.032,-0.012 -0.057,-0.03 -0.076,-0.054c-0.018,-0.023 -0.027,-0.052 -0.027,-0.086c-0,-0.021 0.004,-0.041 0.012,-0.06c0.008,-0.018 0.019,-0.034 0.033,-0.047c0.013,-0.013 0.029,-0.024 0.047,-0.031c0.018,-0.007 0.037,-0.01 0.058,-0.01c0.021,-0 0.04,0.004 0.057,0.011c0.018,0.007 0.033,0.018 0.046,0.031c0.013,0.013 0.023,0.029 0.03,0.047c0.007,0.019 0.011,0.038 0.011,0.059l-0.096,-0Z" style="fill:#710e00;fill-rule:nonzero;stroke:#dfdfdf;stroke-width:0.01px;stroke-linecap:butt;stroke-miterlimit:2;"/></g><g transform="matrix(74.4905,60.5572,-60.5572,74.4905,1056.4,529.278)"><path d="M0.042,-0l0,-0.507l0.102,0l0,0.507l-0.102,-0Zm-0,-0.61l-0,-0.102l0.102,0l0,0.102l-0.102,0Z" style="fill:#710e00;fill-rule:nonzero;stroke:#dfdfdf;stroke-width:0.01px;stroke-linecap:butt;stroke-miterlimit:2;"/></g><g transform="matrix(68.1596,67.6038,-67.6038,68.1596,1070.61,540.215)"><path d="M0.042,-0l0,-0.507l0.102,0l0,0.049l0.002,0c0.011,-0.016 0.023,-0.029 0.038,-0.039c0.015,-0.011 0.035,-0.016 0.058,-0.016c0.013,0 0.025,0.002 0.038,0.006c0.013,0.005 0.024,0.012 0.034,0.022c0.01,0.01 0.018,0.023 0.024,0.038c0.006,0.016 0.009,0.035 0.009,0.058l-0,0.389l-0.102,-0l-0,-0.351c-0,-0.019 -0.004,-0.033 -0.013,-0.044c-0.009,-0.011 -0.021,-0.016 -0.037,-0.016c-0.019,0 -0.033,0.006 -0.04,0.018c-0.007,0.012 -0.011,0.029 -0.011,0.052l-0,0.341l-0.102,-0Z" style="fill:#710e00;fill-rule:nonzero;stroke:#dfdfdf;stroke-width:0.01px;stroke-linecap:butt;stroke-miterlimit:2;"/></g><g transform="matrix(58.5332,76.0911,-76.0911,58.5332,1097.22,566.618)"><path d="M0.144,0.059c0.001,0.012 0.005,0.023 0.014,0.034c0.009,0.011 0.023,0.016 0.04,0.016c0.017,0 0.029,-0.005 0.036,-0.016c0.007,-0.01 0.011,-0.023 0.011,-0.039l-0,-0.1l-0.002,0c-0.011,0.017 -0.025,0.03 -0.041,0.039c-0.015,0.009 -0.033,0.013 -0.054,0.013c-0.043,0 -0.072,-0.016 -0.089,-0.048c-0.006,-0.011 -0.01,-0.025 -0.013,-0.042c-0.003,-0.017 -0.004,-0.039 -0.004,-0.067l-0,-0.193c-0,-0.037 0.001,-0.064 0.003,-0.081c0.004,-0.033 0.02,-0.058 0.047,-0.075c0.013,-0.009 0.032,-0.013 0.057,-0.013c0.013,0 0.023,0.001 0.032,0.004c0.009,0.003 0.018,0.006 0.025,0.011c0.007,0.005 0.014,0.01 0.02,0.017c0.006,0.006 0.012,0.013 0.019,0.02l-0,-0.046l0.102,0l0,0.569c0,0.017 -0.003,0.035 -0.009,0.052c-0.005,0.018 -0.014,0.034 -0.027,0.048c-0.013,0.015 -0.029,0.026 -0.048,0.035c-0.019,0.009 -0.042,0.014 -0.069,0.014c-0.015,-0 -0.031,-0.003 -0.048,-0.008c-0.017,-0.005 -0.032,-0.013 -0.046,-0.025c-0.015,-0.011 -0.027,-0.027 -0.038,-0.046c-0.01,-0.019 -0.017,-0.043 -0.02,-0.073l0.102,-0Zm0,-0.215c0,0.016 0.003,0.03 0.01,0.042c0.007,0.012 0.021,0.018 0.04,0.018c0.015,-0 0.027,-0.005 0.036,-0.016c0.01,-0.01 0.015,-0.023 0.015,-0.039l-0,-0.197c-0,-0.019 -0.005,-0.034 -0.014,-0.046c-0.009,-0.011 -0.022,-0.017 -0.037,-0.017c-0.017,-0 -0.03,0.006 -0.038,0.019c-0.008,0.013 -0.012,0.029 -0.012,0.05l0,0.186Z" style="fill:#710e00;fill-rule:nonzero;stroke:#dfdfdf;stroke-width:0.01px;stroke-linecap:butt;stroke-miterlimit:2;"/></g></g></g><rect x="107.071" y="461.096" width="106.047" height="35.469" style="fill:#b8b8b8;stroke:#000;stroke-width:1px;"/><rect x="1.025" y="461.096" width="106.047" height="35.469" style="fill:#848484;stroke:#954646;stroke-width:1px;"/></svg>